<svg width="17" height="20" viewBox="0 0 17 20" fill="none" xmlns="http://www.w3.org/2000/svg">
<path d="M16.2273 19.2593H12.3636C11.9369 19.2593 11.5909 18.9276 11.5909 18.5185V14.8148C11.5909 14.4057 11.9369 14.0741 12.3636 14.0741H16.2273C16.654 14.0741 17 14.4057 17 14.8148V18.5185C17 18.9276 16.654 19.2593 16.2273 19.2593ZM8.50002 0C10.6338 0 12.3637 1.6582 12.3637 3.70367C12.3637 5.74919 10.6338 7.40739 8.50002 7.40739C6.36617 7.40739 4.63637 5.74919 4.63637 3.70367C4.63637 1.6582 6.36622 0 8.50002 0ZM4.63637 12.5926C4.12124 12.8395 3.09095 14.8148 3.09095 14.8148C3.09095 14.8148 2.57577 15.5555 2.31818 18.5185L0 17.7777L0.772761 14.0741C0.772761 14.0741 2.31818 8.88889 5.40908 8.88894H11.5909C13.5911 8.88889 14.944 11.0602 15.6499 12.5926L12.3636 12.5926L11.5909 12.5926C10.7373 12.5926 10.0454 13.2559 10.0454 14.0741V19.9389L8.88636 20C7.25689 20 5.71464 19.6418 4.34067 19.0032L4.63637 12.5926Z" fill="#6ABD45"/>
</svg>
