<svg width="759" height="154" viewBox="0 0 759 154" fill="none" xmlns="http://www.w3.org/2000/svg">
<path d="M-1.39438 106.036C-12.6972 110.903 -21.1743 112.795 -24 113.133V154.699H772.848V2.62861C761.231 13.4425 733.477 33.8537 715.392 28.9875C692.787 22.9046 667.355 23.9185 650.401 28.9875C633.447 34.0565 623.086 41.1531 604.248 42.1669C585.41 43.1807 591.061 38.1117 561.862 35.0703C532.663 32.0289 520.419 61.4292 506.29 69.5396C492.162 77.65 456.37 75.6224 443.183 69.5396C429.996 63.4568 418.693 61.4292 408.333 61.4292C397.972 61.4292 397.972 68.5258 382.901 69.5396C367.831 70.5534 352.76 60.4154 332.039 61.4292C311.317 62.443 283.06 81.7052 261.396 82.719C239.732 83.7328 252.919 77.65 221.836 75.6224C190.753 73.5948 166.264 99.9536 146.484 106.036C126.704 112.119 97.5052 98.9398 81.4929 94.8846C65.4806 90.8294 50.4102 106.036 38.1655 106.036C25.9207 106.036 12.7341 99.9536 -1.39438 106.036Z" fill="#EEF2FF" fill-opacity="0.5" stroke="#2F439B" stroke-width="2"/>
</svg>
