<svg width="759" height="95" viewBox="0 0 759 95" fill="none" xmlns="http://www.w3.org/2000/svg">
<path d="M-76.1639 73.9022H-109.159V101.782H766.765V0.401505C765.734 3.78084 763.569 11.0464 763.157 13.074C762.641 15.6085 753.361 22.1982 748.721 19.1568C744.081 16.1154 734.286 15.6085 729.13 17.1292C723.975 18.6499 725.006 15.6085 715.21 13.074C705.415 10.5395 702.321 18.6499 697.166 20.1706C692.01 21.6913 684.277 18.6499 680.668 15.6085L680.513 15.4781C676.925 12.4524 672.236 8.49751 659.53 7.49813C646.641 6.48433 644.064 22.1983 638.908 27.7742C633.753 33.3501 621.895 30.3087 618.802 29.2949C615.708 28.2811 613.131 24.7328 603.335 27.7742C593.54 30.8156 584.26 41.4605 572.402 41.9674C560.544 42.4743 550.233 34.3639 541.984 34.3639C533.735 34.3639 536.313 35.8846 524.971 38.4191C513.629 40.9536 494.038 34.3639 487.336 31.8294C480.633 29.2949 471.869 31.8294 467.229 34.3639C462.589 36.8984 446.091 37.4053 441.451 35.8846C436.811 34.3638 423.407 30.8156 420.314 34.3639C417.22 37.9122 403.3 31.8294 399.176 31.8294C395.052 31.8294 397.114 28.2811 386.287 26.2535C375.461 24.2258 368.243 34.3639 365.15 35.8846C362.056 37.4053 356.385 34.8708 351.23 31.8294C346.074 28.788 324.936 25.7466 312.563 28.2811C300.19 30.8156 299.159 38.4191 290.91 39.4329C282.661 40.4467 279.052 47.5433 274.928 47.5433C270.803 47.5433 268.226 47.5433 264.617 45.5157C261.008 43.4881 252.243 45.5157 248.635 47.5433C245.026 49.5709 238.839 50.5847 231.621 51.0916C224.404 51.5985 220.279 47.0364 214.608 45.5157C208.937 43.995 201.204 42.9812 186.768 43.4881C172.333 43.995 172.848 53.1192 157.897 56.6675C142.946 60.2158 132.12 55.6537 121.808 54.133C111.497 52.6123 102.733 59.7089 98.093 62.2435C93.453 64.778 83.142 62.2435 72.8309 59.7089C62.5198 57.1744 58.3954 62.2435 56.8488 62.2435C55.3021 62.2435 48.0844 68.8332 39.8355 62.2435C31.5867 55.6537 27.9778 57.6813 24.8845 57.6813C21.7911 57.6813 19.7289 61.2296 15.089 59.7089C10.449 58.1882 10.449 53.6261 2.71568 54.133C-5.01762 54.6399 -10.6887 65.2848 -13.2665 66.8055C-15.8442 68.3263 -21.5153 70.3539 -25.6397 70.8608C-29.7642 71.3677 -29.7642 68.8332 -42.1374 67.8194C-54.5107 66.8055 -61.7285 73.9022 -76.1639 73.9022Z" fill="white" fill-opacity="0.04" stroke="#0091D6" stroke-width="2"/>
</svg>
