<svg width="446" height="521" viewBox="0 0 446 521" fill="none" xmlns="http://www.w3.org/2000/svg">
<g clip-path="url(#clip0_277_1541)">
<path d="M0 0H434C439.657 0 442.485 0 444.243 1.75736C446 3.51472 446 6.34315 446 12V509C446 514.657 446 517.485 444.243 519.243C442.485 521 439.657 521 434 521H0V0Z" fill="#8D2880"/>
<rect y="-20" width="768" height="940" fill="#2F439B"/>
<path d="M292.712 445.195L292.848 407.604L254.489 407.468L254.353 445.059L292.712 445.195Z" fill="url(#paint0_linear_277_1541)"/>
<path d="M292.713 482.922V445.195L254.218 482.786L292.713 482.922Z" fill="#ED6323"/>
<path d="M330.936 520.65L331.072 483.059L292.713 482.922L330.936 520.65Z" fill="url(#paint1_linear_277_1541)"/>
<path d="M409.015 332.83L409.151 295.239L370.792 295.103L409.015 332.83Z" fill="url(#paint2_linear_277_1541)"/>
<path d="M407.654 520.786V483.059H369.295L369.159 520.65L407.654 520.786Z" fill="url(#paint3_linear_277_1541)"/>
<path d="M331.073 483.059L331.209 445.467L292.85 445.331C292.85 466.17 309.309 483.059 329.713 483.059H331.073Z" fill="url(#paint4_linear_277_1541)"/>
<path d="M255.985 482.65L254.217 484.42V485.918L257.482 482.65H255.985Z" fill="#FFFEFF"/>
<path d="M262.379 482.65L254.217 490.958V492.32L263.875 482.65H262.379Z" fill="#FFFEFF"/>
<path d="M268.772 482.65L254.217 497.495V498.857L270.268 482.65H268.772Z" fill="#FFFEFF"/>
<path d="M275.165 482.65L254.217 503.897V505.395L276.661 482.65H275.165Z" fill="#FFFEFF"/>
<path d="M281.694 482.65L254.217 510.434V511.932L283.054 482.65H281.694Z" fill="#FFFEFF"/>
<path d="M288.088 482.786L254.082 516.972V518.47L289.448 482.786H288.088Z" fill="#FFFEFF"/>
<path d="M292.577 484.556L257.346 520.24H258.707L292.577 486.054V484.556Z" fill="#FFFEFF"/>
<path d="M292.576 491.093L263.739 520.24H265.099L292.576 492.592V491.093Z" fill="#FFFEFF"/>
<path d="M292.576 497.632L270.132 520.241H271.492L292.576 498.994V497.632Z" fill="#FFFEFF"/>
<path d="M292.577 504.169L276.526 520.376H278.022L292.577 505.531V504.169Z" fill="#FFFEFF"/>
<path d="M292.577 510.57L282.919 520.377H284.416L292.577 512.068V510.57Z" fill="#FFFEFF"/>
<path d="M292.577 517.108L289.313 520.376H290.809L292.577 518.606V517.108Z" fill="#FFFEFF"/>
<path d="M408.743 370.558L408.879 332.966H408.063C387.251 332.83 370.384 349.719 370.384 370.421L408.743 370.558Z" fill="url(#paint5_linear_277_1541)"/>
<path d="M369.295 445.467V407.876L330.936 407.74L330.8 445.331L369.295 445.467Z" fill="#6ABD45"/>
<path d="M407.79 408.012L407.926 370.285H369.431L369.294 407.876L407.79 408.012Z" fill="url(#paint6_linear_277_1541)"/>
<path d="M446.15 408.148L446.286 370.421L407.927 370.285L407.791 408.012L446.15 408.148Z" fill="url(#paint7_linear_277_1541)"/>
<path d="M446.013 445.74L446.149 408.149H444.789C424.385 408.149 407.654 424.901 407.654 445.604L446.013 445.74Z" fill="url(#paint8_linear_277_1541)"/>
<path d="M369.159 483.059L369.295 445.467L330.8 445.331L330.664 482.922L369.159 483.059Z" fill="url(#paint9_linear_277_1541)"/>
<path d="M407.518 483.195L407.654 445.604L369.294 445.467C369.294 466.306 385.754 483.195 406.157 483.195H407.518Z" fill="#E61D35"/>
<path d="M253.674 521.058L253.81 483.467L215.45 483.331C215.45 504.169 231.91 521.058 252.313 521.058H253.674Z" fill="#8D2880"/>
<path d="M445.878 483.331L446.014 445.74L407.655 445.604L407.519 483.195L445.878 483.331Z" fill="url(#paint10_linear_277_1541)"/>
<path d="M447.374 332.558L447.51 294.967L409.014 294.83L408.878 332.422L447.374 332.558Z" fill="url(#paint11_linear_277_1541)"/>
<path d="M332.84 370.149L331.072 371.919V373.281L334.336 370.149H332.84Z" fill="#FFFEFF"/>
<path d="M339.233 370.149L331.072 378.457V379.819L340.73 370.149H339.233Z" fill="#FFFEFF"/>
<path d="M345.627 370.149L331.072 384.858V386.356L347.123 370.149H345.627Z" fill="#FFFEFF"/>
<path d="M352.02 370.149L331.072 391.396V392.894L353.516 370.149H352.02Z" fill="#FFFEFF"/>
<path d="M358.414 370.149L330.937 397.933V399.432L359.91 370.149H358.414Z" fill="#FFFEFF"/>
<path d="M364.807 370.149L330.937 404.471V405.833L366.303 370.149H364.807Z" fill="#FFFEFF"/>
<path d="M369.433 372.055L334.202 407.74H335.562L369.433 373.553V372.055Z" fill="#FFFEFF"/>
<path d="M369.431 378.593L340.594 407.74H341.954L369.431 379.955V378.593Z" fill="#FFFEFF"/>
<path d="M369.431 385.131L346.987 407.74H348.347L369.431 386.493V385.131Z" fill="#FFFEFF"/>
<path d="M369.431 391.532L353.38 407.74H354.741L369.431 393.03V391.532Z" fill="#FFFEFF"/>
<path d="M369.432 398.07L359.774 407.876H361.134L369.432 399.568V398.07Z" fill="#FFFEFF"/>
<path d="M369.432 404.607L366.167 407.876H367.664L369.432 406.105V404.607Z" fill="#FFFEFF"/>
<path d="M410.511 332.422L408.742 334.192V335.69L412.007 332.422H410.511Z" fill="#FFFDFF"/>
<path d="M416.904 332.422L408.742 340.73V342.092L418.4 332.422H416.904Z" fill="#FFFDFF"/>
<path d="M423.297 332.422L408.742 347.131V348.629L424.793 332.422H423.297Z" fill="#FFFDFF"/>
<path d="M429.69 332.422L408.742 353.669V355.167L431.186 332.422H429.69Z" fill="#FFFDFF"/>
<path d="M436.084 332.422L408.606 360.206V361.704L437.58 332.422H436.084Z" fill="#FFFDFF"/>
<path d="M442.477 332.558L408.606 366.744V368.242L443.973 332.558H442.477Z" fill="#FFFDFF"/>
<path d="M447.102 334.328L411.872 370.013H413.232L447.102 335.826V334.328Z" fill="#FFFDFF"/>
<path d="M447.101 340.866L418.264 370.013H419.624L447.101 342.364V340.866Z" fill="#FFFDFF"/>
<path d="M447.101 347.403L424.657 370.013H426.017L447.101 348.765V347.403Z" fill="#FFFDFF"/>
<path d="M447.102 353.805L431.051 370.013L432.411 370.149L447.102 355.303V353.805Z" fill="#FFFDFF"/>
<path d="M447.102 360.342L437.444 370.149H438.805L447.102 361.841V360.342Z" fill="#FFFDFF"/>
<path d="M447.102 366.88L443.837 370.149H445.334L447.102 368.378V366.88Z" fill="#FFFDFF"/>
<path d="M178.613 34.8125L178.486 69.7746L214.289 34.9391L178.613 34.8125Z" fill="url(#paint12_linear_277_1541)"/>
<path d="M142.81 -0.656425L142.683 34.3057H143.948C162.925 34.3057 178.486 18.7248 178.486 -0.529743L142.81 -0.656425Z" fill="#6ABD45"/>
<path d="M106.88 69.1414L106.754 104.103L142.557 104.23L106.88 69.1414Z" fill="url(#paint13_linear_277_1541)"/>
<path d="M0.230036 34.179L0.103516 69.1412L35.78 69.2678L0.230036 34.179Z" fill="url(#paint14_linear_277_1541)"/>
<path d="M107.007 34.179L106.881 69.1412L142.684 69.2678V34.3057L107.007 34.179Z" fill="url(#paint15_linear_277_1541)"/>
<path d="M107.133 -0.782852L107.007 34.1793L142.683 34.306L142.81 -0.65617L107.133 -0.782852Z" fill="url(#paint16_linear_277_1541)"/>
<path d="M35.6539 69.0146L35.5273 103.977L71.2038 104.103L71.3303 69.1413L35.6539 69.0146Z" fill="url(#paint17_linear_277_1541)"/>
<path d="M71.4564 -0.909607L71.3298 34.0525L107.006 34.1792L71.4564 -0.909607Z" fill="url(#paint18_linear_277_1541)"/>
<path d="M35.6539 33.9258L35.5273 68.888H36.7925C55.7693 68.888 71.3303 53.307 71.3303 34.0525L35.6539 33.9258Z" fill="url(#paint19_linear_277_1541)"/>
<path d="M35.6531 -1.03619V33.9259L71.3295 34.0526L71.456 -0.909512L35.6531 -1.03619Z" fill="url(#paint20_linear_277_1541)"/>
<path d="M106.754 104.104L106.627 139.066L142.304 139.192C142.304 119.811 126.996 104.104 108.019 104.104H106.754Z" fill="url(#paint21_linear_277_1541)"/>
<path d="M71.3306 34.0526L71.2041 69.0147L106.881 69.1414L107.007 34.1793L71.3306 34.0526Z" fill="#6ABD45"/>
<path d="M-0.0222168 -1.16295C-0.0222168 18.2182 15.2858 33.9258 34.2626 33.9258H35.5278L35.6543 -1.03631L-0.0222168 -1.16295Z" fill="url(#paint22_linear_277_1541)"/>
<path d="M176.588 104.483L178.233 102.837V101.443L175.323 104.483H176.588Z" fill="white"/>
<path d="M170.642 104.483L178.232 96.7562V95.3628L169.25 104.483H170.642Z" fill="white"/>
<path d="M164.696 104.483L178.233 90.6759V89.4092L163.305 104.483H164.696Z" fill="white"/>
<path d="M158.75 104.483L178.233 84.5955V83.3288L157.359 104.357L158.75 104.483Z" fill="white"/>
<path d="M152.804 104.357L178.359 78.6417V77.2483L151.412 104.357H152.804Z" fill="white"/>
<path d="M146.858 104.357L178.359 72.5613V71.1679L145.466 104.357H146.858Z" fill="white"/>
<path d="M142.556 102.71L175.323 69.5214H174.058L142.556 101.317V102.71Z" fill="white"/>
<path d="M142.556 96.6297L169.377 69.5214H168.112L142.556 95.2363V96.6297Z" fill="white"/>
<path d="M142.556 90.5492L163.431 69.3946H162.166L142.556 89.1558V90.5492Z" fill="white"/>
<path d="M142.556 84.4688L157.485 69.3946H156.219L142.556 83.2021V84.4688Z" fill="white"/>
<path d="M142.556 78.3885L151.538 69.3946H150.273L142.556 77.1217V78.3885Z" fill="white"/>
<path d="M142.556 72.4347L145.592 69.3946H144.201L142.683 71.0414L142.556 72.4347Z" fill="white"/>
<path d="M71.3306 139.066L71.2041 174.028L106.881 174.154L107.007 139.192L71.3306 139.066Z" fill="#E61D35"/>
<path d="M178.233 -0.52951V34.5593H213.909L214.036 -0.402867L178.233 -0.52951Z" fill="url(#paint23_linear_277_1541)"/>
<path d="M35.4009 173.901V208.863L71.0774 208.99L71.2038 174.028L35.4009 173.901Z" fill="url(#paint24_linear_277_1541)"/>
<path d="M-0.276351 173.774L-0.402832 208.737L35.4001 208.863V173.901L-0.276351 173.774Z" fill="url(#paint25_linear_277_1541)"/>
<path d="M-0.149115 138.812L-0.275635 173.774H0.989488C19.9663 173.774 35.5274 158.193 35.5274 138.939L-0.149115 138.812Z" fill="url(#paint26_linear_277_1541)"/>
<path d="M71.3301 104.104V139.066L107.007 139.192L107.133 104.23L71.3301 104.104Z" fill="url(#paint27_linear_277_1541)"/>
<path d="M106.854 34.3069V69.2691L142.531 69.3957L142.657 34.4336L106.854 34.3069Z" fill="url(#paint28_linear_277_1541)"/>
<path d="M35.6539 103.977L35.5273 138.939L71.2038 139.066C71.2038 119.684 55.8958 103.977 36.919 103.977H35.6539Z" fill="#8D2880"/>
<path d="M-0.0226499 103.85L-0.14917 138.812L35.5273 138.939L35.6538 103.977L-0.0226499 103.85Z" fill="url(#paint29_linear_277_1541)"/>
<path d="M32.8706 244.206L34.5152 242.559V241.165L31.6055 244.206H32.8706Z" fill="white"/>
<path d="M26.9245 244.205L34.5153 236.478V235.085L25.6594 244.205H26.9245Z" fill="white"/>
<path d="M20.9788 244.205L34.5156 230.398V229.131L19.5872 244.205H20.9788Z" fill="white"/>
<path d="M15.0328 244.205L34.6422 224.444V223.051L13.6411 244.079L15.0328 244.205Z" fill="white"/>
<path d="M9.08598 244.079L34.6414 218.364V216.97L7.69434 244.079H9.08598Z" fill="white"/>
<path d="M3.13993 244.079L34.6415 212.283V210.89L1.74829 244.079H3.13993Z" fill="white"/>
<path d="M-1.16138 242.432L31.7318 209.243H30.3402L-1.16138 241.039V242.432Z" fill="white"/>
<path d="M-1.16138 236.352L25.6592 209.243H24.3941L-1.16138 234.958V236.352Z" fill="white"/>
<path d="M-1.16138 230.271L19.7132 209.117H18.448L-1.16138 228.878V230.271Z" fill="white"/>
<path d="M-1.16138 224.191L13.7671 209.117H12.5019L-1.16138 222.924V224.191Z" fill="white"/>
<path d="M-1.16138 218.237L7.821 209.117H6.55588L-1.16138 216.844V218.237Z" fill="white"/>
<path d="M-1.03564 212.157L1.87412 209.117H0.609L-1.03564 210.763V212.157Z" fill="white"/>
<path d="M141.76 207H136.93L132.58 221.22L127.87 206.94H123.91L119.2 221.22L114.85 207H109.9L117.07 228.15H121.09L125.83 214.41L130.57 228.15H134.59L141.76 207ZM157.739 220.41V220.35C157.739 215.79 155.279 211.62 149.909 211.62C145.229 211.62 141.959 215.4 141.959 219.99V220.05C141.959 224.97 145.529 228.36 150.359 228.36C153.269 228.36 155.429 227.22 156.929 225.36L154.319 223.05C153.059 224.22 151.949 224.7 150.419 224.7C148.379 224.7 146.939 223.62 146.489 221.55H157.679C157.709 221.13 157.739 220.86 157.739 220.41ZM153.299 218.7H146.429C146.789 216.63 148.019 215.28 149.909 215.28C151.829 215.28 153.029 216.66 153.299 218.7ZM165.908 228V206.1H161.348V228H165.908ZM184.35 225.42L181.68 222.72C180.57 223.77 179.52 224.43 177.99 224.43C175.5 224.43 173.91 222.45 173.91 219.99V219.93C173.91 217.56 175.53 215.55 177.81 215.55C179.43 215.55 180.45 216.24 181.47 217.32L184.26 214.32C182.76 212.64 180.87 211.62 177.84 211.62C172.92 211.62 169.41 215.4 169.41 219.99V220.05C169.41 224.64 172.95 228.36 177.78 228.36C180.99 228.36 182.79 227.13 184.35 225.42ZM203.51 219.99V219.93C203.51 215.31 199.82 211.62 194.84 211.62C189.83 211.62 186.11 215.37 186.11 219.99V220.05C186.11 224.67 189.8 228.36 194.78 228.36C199.79 228.36 203.51 224.61 203.51 219.99ZM199.01 220.05C199.01 222.42 197.45 224.43 194.84 224.43C192.32 224.43 190.61 222.36 190.61 219.99V219.93C190.61 217.56 192.17 215.55 194.78 215.55C197.3 215.55 199.01 217.62 199.01 219.99V220.05ZM231.351 228V217.53C231.351 213.66 229.311 211.62 225.921 211.62C223.731 211.62 222.051 212.52 220.641 214.17C219.801 212.55 218.211 211.62 216.111 211.62C213.801 211.62 212.421 212.85 211.371 214.2V211.92H206.811V228H211.371V219.03C211.371 216.87 212.421 215.76 214.131 215.76C215.841 215.76 216.801 216.87 216.801 219.03V228H221.361V219.03C221.361 216.87 222.411 215.76 224.121 215.76C225.831 215.76 226.791 216.87 226.791 219.03V228H231.351ZM250.317 220.41V220.35C250.317 215.79 247.857 211.62 242.487 211.62C237.807 211.62 234.537 215.4 234.537 219.99V220.05C234.537 224.97 238.107 228.36 242.937 228.36C245.847 228.36 248.007 227.22 249.507 225.36L246.897 223.05C245.637 224.22 244.527 224.7 242.997 224.7C240.957 224.7 239.517 223.62 239.067 221.55H250.257C250.287 221.13 250.317 220.86 250.317 220.41ZM245.877 218.7H239.007C239.367 216.63 240.597 215.28 242.487 215.28C244.407 215.28 245.607 216.66 245.877 218.7ZM281.04 222.24V222.18C281.04 219.36 279.54 217.95 277.11 217.02C278.61 216.18 279.87 214.86 279.87 212.49V212.43C279.87 209.13 277.23 207 272.94 207H263.19V228H273.18C277.92 228 281.04 226.08 281.04 222.24ZM275.28 213.27C275.28 214.83 273.99 215.49 271.95 215.49H267.69V211.05H272.25C274.2 211.05 275.28 211.83 275.28 213.21V213.27ZM276.45 221.67C276.45 223.23 275.22 223.95 273.18 223.95H267.69V219.33H273.03C275.4 219.33 276.45 220.2 276.45 221.61V221.67ZM298.19 228V218.67C298.19 214.32 296 211.74 291.02 211.74C288.29 211.74 286.55 212.25 284.78 213.03L285.92 216.51C287.39 215.97 288.62 215.64 290.36 215.64C292.64 215.64 293.81 216.69 293.81 218.58V218.85C292.67 218.46 291.5 218.19 289.88 218.19C286.07 218.19 283.4 219.81 283.4 223.32V223.38C283.4 226.56 285.89 228.3 288.92 228.3C291.14 228.3 292.67 227.49 293.78 226.26V228H298.19ZM293.87 222.33C293.87 223.98 292.43 225.15 290.3 225.15C288.83 225.15 287.81 224.43 287.81 223.2V223.14C287.81 221.7 289.01 220.92 290.96 220.92C292.07 220.92 293.09 221.16 293.87 221.52V222.33ZM316.274 225.42L313.604 222.72C312.494 223.77 311.444 224.43 309.914 224.43C307.424 224.43 305.834 222.45 305.834 219.99V219.93C305.834 217.56 307.454 215.55 309.734 215.55C311.354 215.55 312.374 216.24 313.394 217.32L316.184 214.32C314.684 212.64 312.794 211.62 309.764 211.62C304.844 211.62 301.334 215.4 301.334 219.99V220.05C301.334 224.64 304.874 228.36 309.704 228.36C312.914 228.36 314.714 227.13 316.274 225.42ZM334.823 228L328.493 218.25L334.613 211.92H329.153L323.813 217.77V206.1H319.253V228H323.813V223.11L325.403 221.43L329.603 228H334.823Z" fill="white"/>
<path d="M105.305 263H110.981V262.124H106.253V254.6H105.305V263ZM118.546 259.892C118.546 259.452 118.466 259.036 118.306 258.644C118.146 258.252 117.922 257.912 117.634 257.624C117.346 257.328 117.002 257.096 116.602 256.928C116.21 256.752 115.782 256.664 115.318 256.664C114.846 256.664 114.41 256.752 114.01 256.928C113.618 257.096 113.278 257.328 112.99 257.624C112.702 257.92 112.478 258.268 112.318 258.668C112.158 259.06 112.078 259.476 112.078 259.916C112.078 260.356 112.158 260.772 112.318 261.164C112.478 261.556 112.702 261.9 112.99 262.196C113.278 262.484 113.618 262.716 114.01 262.892C114.402 263.06 114.83 263.144 115.294 263.144C115.758 263.144 116.19 263.06 116.59 262.892C116.99 262.716 117.334 262.48 117.622 262.184C117.91 261.888 118.134 261.544 118.294 261.152C118.462 260.752 118.546 260.332 118.546 259.892ZM117.598 259.916C117.598 260.252 117.542 260.568 117.43 260.864C117.318 261.152 117.162 261.404 116.962 261.62C116.762 261.836 116.522 262.008 116.242 262.136C115.962 262.256 115.654 262.316 115.318 262.316C114.99 262.316 114.686 262.252 114.406 262.124C114.126 261.996 113.882 261.824 113.674 261.608C113.474 261.392 113.314 261.136 113.194 260.84C113.082 260.544 113.026 260.228 113.026 259.892C113.026 259.556 113.082 259.244 113.194 258.956C113.306 258.66 113.458 258.404 113.65 258.188C113.85 257.964 114.09 257.792 114.37 257.672C114.65 257.544 114.958 257.48 115.294 257.48C115.622 257.48 115.926 257.544 116.206 257.672C116.486 257.8 116.73 257.976 116.938 258.2C117.146 258.416 117.306 258.672 117.418 258.968C117.538 259.264 117.598 259.58 117.598 259.916ZM121.144 260.528C121.144 260.064 121.208 259.656 121.336 259.304C121.464 258.944 121.64 258.644 121.864 258.404C122.088 258.164 122.348 257.984 122.644 257.864C122.948 257.744 123.268 257.684 123.604 257.684H123.676V256.688C123.38 256.68 123.104 256.716 122.848 256.796C122.592 256.876 122.356 256.996 122.14 257.156C121.924 257.308 121.732 257.492 121.564 257.708C121.396 257.924 121.256 258.16 121.144 258.416V256.796H120.22V263H121.144V260.528ZM125.365 260.24H130.285C130.293 260.184 130.297 260.132 130.297 260.084C130.297 260.036 130.297 259.992 130.297 259.952C130.297 259.496 130.233 259.068 130.105 258.668C129.977 258.268 129.789 257.92 129.541 257.624C129.293 257.328 128.989 257.096 128.629 256.928C128.269 256.752 127.861 256.664 127.405 256.664C126.973 256.664 126.573 256.748 126.205 256.916C125.845 257.084 125.533 257.316 125.269 257.612C125.005 257.9 124.797 258.244 124.645 258.644C124.501 259.036 124.429 259.456 124.429 259.904C124.429 260.384 124.509 260.824 124.669 261.224C124.837 261.624 125.061 261.968 125.341 262.256C125.621 262.536 125.949 262.756 126.325 262.916C126.701 263.068 127.101 263.144 127.525 263.144C128.117 263.144 128.613 263.04 129.013 262.832C129.413 262.616 129.769 262.332 130.081 261.98L129.505 261.464C129.249 261.728 128.965 261.94 128.653 262.1C128.349 262.26 127.981 262.34 127.549 262.34C127.277 262.34 127.017 262.296 126.769 262.208C126.521 262.112 126.297 261.976 126.097 261.8C125.897 261.616 125.733 261.396 125.605 261.14C125.477 260.876 125.397 260.576 125.365 260.24ZM125.365 259.556C125.397 259.252 125.469 258.972 125.581 258.716C125.693 258.46 125.837 258.24 126.013 258.056C126.189 257.864 126.393 257.716 126.625 257.612C126.857 257.5 127.109 257.444 127.381 257.444C127.693 257.444 127.965 257.504 128.197 257.624C128.437 257.736 128.637 257.888 128.797 258.08C128.965 258.272 129.093 258.496 129.181 258.752C129.277 259.008 129.337 259.276 129.361 259.556H125.365ZM136.835 257.9C136.667 257.548 136.419 257.256 136.091 257.024C135.763 256.784 135.347 256.664 134.843 256.664C134.579 256.664 134.347 256.696 134.147 256.76C133.947 256.824 133.767 256.912 133.607 257.024C133.447 257.128 133.303 257.252 133.175 257.396C133.055 257.54 132.943 257.688 132.839 257.84V256.796H131.915V263H132.839V259.46C132.839 259.172 132.883 258.912 132.971 258.68C133.059 258.44 133.179 258.232 133.331 258.056C133.491 257.88 133.675 257.744 133.883 257.648C134.091 257.552 134.319 257.504 134.567 257.504C135.063 257.504 135.451 257.668 135.731 257.996C136.019 258.316 136.163 258.768 136.163 259.352V263H137.075V259.424C137.075 259.12 137.119 258.848 137.207 258.608C137.303 258.368 137.427 258.168 137.579 258.008C137.739 257.84 137.923 257.716 138.131 257.636C138.339 257.548 138.559 257.504 138.791 257.504C139.295 257.504 139.687 257.668 139.967 257.996C140.255 258.316 140.399 258.776 140.399 259.376V263H141.323V259.16C141.323 258.384 141.119 257.776 140.711 257.336C140.303 256.888 139.739 256.664 139.019 256.664C138.747 256.664 138.499 256.696 138.275 256.76C138.059 256.824 137.863 256.912 137.687 257.024C137.511 257.136 137.351 257.268 137.207 257.42C137.071 257.572 136.947 257.732 136.835 257.9ZM147.167 254.6V263H148.115V254.6H147.167ZM156.683 259.892C156.683 259.38 156.599 258.924 156.431 258.524C156.263 258.124 156.039 257.788 155.759 257.516C155.479 257.236 155.159 257.024 154.799 256.88C154.447 256.736 154.087 256.664 153.719 256.664C153.431 256.664 153.167 256.704 152.927 256.784C152.695 256.856 152.483 256.956 152.291 257.084C152.099 257.204 151.923 257.348 151.763 257.516C151.611 257.684 151.471 257.86 151.343 258.044V256.796H150.419V264.92H151.343V261.812C151.463 261.988 151.599 262.156 151.751 262.316C151.911 262.476 152.087 262.616 152.279 262.736C152.471 262.856 152.687 262.952 152.927 263.024C153.167 263.096 153.431 263.132 153.719 263.132C154.095 263.132 154.459 263.06 154.811 262.916C155.171 262.764 155.487 262.552 155.759 262.28C156.039 262 156.263 261.66 156.431 261.26C156.599 260.86 156.683 260.404 156.683 259.892ZM155.735 259.904C155.735 260.28 155.675 260.62 155.555 260.924C155.443 261.22 155.287 261.472 155.087 261.68C154.895 261.88 154.663 262.036 154.391 262.148C154.127 262.252 153.847 262.304 153.551 262.304C153.263 262.304 152.983 262.248 152.711 262.136C152.447 262.016 152.207 261.852 151.991 261.644C151.783 261.436 151.615 261.184 151.487 260.888C151.367 260.584 151.307 260.252 151.307 259.892C151.307 259.532 151.367 259.204 151.487 258.908C151.615 258.612 151.783 258.36 151.991 258.152C152.207 257.944 152.447 257.784 152.711 257.672C152.983 257.552 153.263 257.492 153.551 257.492C153.847 257.492 154.127 257.548 154.391 257.66C154.655 257.772 154.887 257.936 155.087 258.152C155.287 258.36 155.443 258.612 155.555 258.908C155.675 259.204 155.735 259.536 155.735 259.904ZM162.647 261.26V261.236C162.647 260.956 162.587 260.72 162.467 260.528C162.355 260.336 162.203 260.172 162.011 260.036C161.819 259.9 161.603 259.788 161.363 259.7C161.131 259.612 160.895 259.532 160.655 259.46C160.447 259.396 160.247 259.332 160.055 259.268C159.863 259.204 159.691 259.132 159.539 259.052C159.395 258.972 159.279 258.88 159.191 258.776C159.103 258.664 159.059 258.536 159.059 258.392V258.368C159.059 258.112 159.167 257.9 159.383 257.732C159.599 257.556 159.891 257.468 160.259 257.468C160.563 257.468 160.871 257.524 161.183 257.636C161.503 257.74 161.807 257.884 162.095 258.068L162.515 257.372C162.195 257.164 161.839 257 161.447 256.88C161.055 256.752 160.667 256.688 160.283 256.688C159.979 256.688 159.695 256.732 159.431 256.82C159.175 256.9 158.951 257.02 158.759 257.18C158.575 257.332 158.431 257.52 158.327 257.744C158.223 257.96 158.171 258.2 158.171 258.464V258.488C158.171 258.776 158.231 259.016 158.351 259.208C158.479 259.4 158.639 259.56 158.831 259.688C159.031 259.816 159.251 259.924 159.491 260.012C159.739 260.092 159.983 260.168 160.223 260.24C160.423 260.296 160.615 260.356 160.799 260.42C160.991 260.484 161.159 260.56 161.303 260.648C161.447 260.728 161.559 260.824 161.639 260.936C161.727 261.048 161.771 261.18 161.771 261.332V261.356C161.771 261.66 161.651 261.9 161.411 262.076C161.171 262.252 160.863 262.34 160.487 262.34C160.119 262.34 159.751 262.272 159.383 262.136C159.023 262 158.675 261.804 158.339 261.548L157.871 262.208C158.223 262.488 158.627 262.712 159.083 262.88C159.539 263.04 159.991 263.12 160.439 263.12C160.751 263.12 161.039 263.08 161.303 263C161.575 262.912 161.807 262.788 161.999 262.628C162.199 262.468 162.355 262.276 162.467 262.052C162.587 261.82 162.647 261.556 162.647 261.26ZM168.768 260.348C168.768 260.636 168.72 260.9 168.624 261.14C168.528 261.38 168.396 261.588 168.228 261.764C168.068 261.932 167.872 262.064 167.64 262.16C167.416 262.248 167.172 262.292 166.908 262.292C166.356 262.292 165.932 262.124 165.636 261.788C165.34 261.452 165.192 260.996 165.192 260.42V256.796H164.268V260.648C164.268 261.016 164.32 261.352 164.424 261.656C164.536 261.96 164.692 262.224 164.892 262.448C165.1 262.664 165.348 262.832 165.636 262.952C165.932 263.072 166.268 263.132 166.644 263.132C167.18 263.132 167.616 263.016 167.952 262.784C168.288 262.544 168.56 262.256 168.768 261.92V263H169.68V256.796H168.768V260.348ZM176.679 257.9C176.511 257.548 176.263 257.256 175.935 257.024C175.607 256.784 175.191 256.664 174.687 256.664C174.423 256.664 174.191 256.696 173.991 256.76C173.791 256.824 173.611 256.912 173.451 257.024C173.291 257.128 173.147 257.252 173.019 257.396C172.899 257.54 172.787 257.688 172.683 257.84V256.796H171.759V263H172.683V259.46C172.683 259.172 172.727 258.912 172.815 258.68C172.903 258.44 173.023 258.232 173.175 258.056C173.335 257.88 173.519 257.744 173.727 257.648C173.935 257.552 174.163 257.504 174.411 257.504C174.907 257.504 175.295 257.668 175.575 257.996C175.863 258.316 176.007 258.768 176.007 259.352V263H176.919V259.424C176.919 259.12 176.963 258.848 177.051 258.608C177.147 258.368 177.271 258.168 177.423 258.008C177.583 257.84 177.767 257.716 177.975 257.636C178.183 257.548 178.403 257.504 178.635 257.504C179.139 257.504 179.531 257.668 179.811 257.996C180.099 258.316 180.243 258.776 180.243 259.376V263H181.167V259.16C181.167 258.384 180.963 257.776 180.555 257.336C180.147 256.888 179.583 256.664 178.863 256.664C178.591 256.664 178.343 256.696 178.119 256.76C177.903 256.824 177.707 256.912 177.531 257.024C177.355 257.136 177.195 257.268 177.051 257.42C176.915 257.572 176.791 257.732 176.679 257.9ZM186.926 263H192.602V262.124H187.874V254.6H186.926V263ZM200.167 259.892C200.167 259.452 200.087 259.036 199.927 258.644C199.767 258.252 199.543 257.912 199.255 257.624C198.967 257.328 198.623 257.096 198.223 256.928C197.831 256.752 197.403 256.664 196.939 256.664C196.467 256.664 196.031 256.752 195.631 256.928C195.239 257.096 194.899 257.328 194.611 257.624C194.323 257.92 194.099 258.268 193.939 258.668C193.779 259.06 193.699 259.476 193.699 259.916C193.699 260.356 193.779 260.772 193.939 261.164C194.099 261.556 194.323 261.9 194.611 262.196C194.899 262.484 195.239 262.716 195.631 262.892C196.023 263.06 196.451 263.144 196.915 263.144C197.379 263.144 197.811 263.06 198.211 262.892C198.611 262.716 198.955 262.48 199.243 262.184C199.531 261.888 199.755 261.544 199.915 261.152C200.083 260.752 200.167 260.332 200.167 259.892ZM199.219 259.916C199.219 260.252 199.163 260.568 199.051 260.864C198.939 261.152 198.783 261.404 198.583 261.62C198.383 261.836 198.143 262.008 197.863 262.136C197.583 262.256 197.275 262.316 196.939 262.316C196.611 262.316 196.307 262.252 196.027 262.124C195.747 261.996 195.503 261.824 195.295 261.608C195.095 261.392 194.935 261.136 194.815 260.84C194.703 260.544 194.647 260.228 194.647 259.892C194.647 259.556 194.703 259.244 194.815 258.956C194.927 258.66 195.079 258.404 195.271 258.188C195.471 257.964 195.711 257.792 195.991 257.672C196.271 257.544 196.579 257.48 196.915 257.48C197.243 257.48 197.547 257.544 197.827 257.672C198.107 257.8 198.351 257.976 198.559 258.2C198.767 258.416 198.927 258.672 199.039 258.968C199.159 259.264 199.219 259.58 199.219 259.916ZM202.765 260.528C202.765 260.064 202.829 259.656 202.957 259.304C203.085 258.944 203.261 258.644 203.485 258.404C203.709 258.164 203.969 257.984 204.265 257.864C204.569 257.744 204.889 257.684 205.225 257.684H205.297V256.688C205.001 256.68 204.725 256.716 204.469 256.796C204.213 256.876 203.977 256.996 203.761 257.156C203.545 257.308 203.353 257.492 203.185 257.708C203.017 257.924 202.877 258.16 202.765 258.416V256.796H201.841V263H202.765V260.528ZM206.986 260.24H211.906C211.914 260.184 211.918 260.132 211.918 260.084C211.918 260.036 211.918 259.992 211.918 259.952C211.918 259.496 211.854 259.068 211.726 258.668C211.598 258.268 211.41 257.92 211.162 257.624C210.914 257.328 210.61 257.096 210.25 256.928C209.89 256.752 209.482 256.664 209.026 256.664C208.594 256.664 208.194 256.748 207.826 256.916C207.466 257.084 207.154 257.316 206.89 257.612C206.626 257.9 206.418 258.244 206.266 258.644C206.122 259.036 206.05 259.456 206.05 259.904C206.05 260.384 206.13 260.824 206.29 261.224C206.458 261.624 206.682 261.968 206.962 262.256C207.242 262.536 207.57 262.756 207.946 262.916C208.322 263.068 208.722 263.144 209.146 263.144C209.738 263.144 210.234 263.04 210.634 262.832C211.034 262.616 211.39 262.332 211.702 261.98L211.126 261.464C210.87 261.728 210.586 261.94 210.274 262.1C209.97 262.26 209.602 262.34 209.17 262.34C208.898 262.34 208.638 262.296 208.39 262.208C208.142 262.112 207.918 261.976 207.718 261.8C207.518 261.616 207.354 261.396 207.226 261.14C207.098 260.876 207.018 260.576 206.986 260.24ZM206.986 259.556C207.018 259.252 207.09 258.972 207.202 258.716C207.314 258.46 207.458 258.24 207.634 258.056C207.81 257.864 208.014 257.716 208.246 257.612C208.478 257.5 208.73 257.444 209.002 257.444C209.314 257.444 209.586 257.504 209.818 257.624C210.058 257.736 210.258 257.888 210.418 258.08C210.586 258.272 210.714 258.496 210.802 258.752C210.898 259.008 210.958 259.276 210.982 259.556H206.986ZM218.456 257.9C218.288 257.548 218.04 257.256 217.712 257.024C217.384 256.784 216.968 256.664 216.464 256.664C216.2 256.664 215.968 256.696 215.768 256.76C215.568 256.824 215.388 256.912 215.228 257.024C215.068 257.128 214.924 257.252 214.796 257.396C214.676 257.54 214.564 257.688 214.46 257.84V256.796H213.536V263H214.46V259.46C214.46 259.172 214.504 258.912 214.592 258.68C214.68 258.44 214.8 258.232 214.952 258.056C215.112 257.88 215.296 257.744 215.504 257.648C215.712 257.552 215.94 257.504 216.188 257.504C216.684 257.504 217.072 257.668 217.352 257.996C217.64 258.316 217.784 258.768 217.784 259.352V263H218.696V259.424C218.696 259.12 218.74 258.848 218.828 258.608C218.924 258.368 219.048 258.168 219.2 258.008C219.36 257.84 219.544 257.716 219.752 257.636C219.96 257.548 220.18 257.504 220.412 257.504C220.916 257.504 221.308 257.668 221.588 257.996C221.876 258.316 222.02 258.776 222.02 259.376V263H222.944V259.16C222.944 258.384 222.74 257.776 222.332 257.336C221.924 256.888 221.36 256.664 220.64 256.664C220.368 256.664 220.12 256.696 219.896 256.76C219.68 256.824 219.484 256.912 219.308 257.024C219.132 257.136 218.972 257.268 218.828 257.42C218.692 257.572 218.568 257.732 218.456 257.9ZM228.788 254.6V263H229.736V254.6H228.788ZM238.304 259.892C238.304 259.38 238.22 258.924 238.052 258.524C237.884 258.124 237.66 257.788 237.38 257.516C237.1 257.236 236.78 257.024 236.42 256.88C236.068 256.736 235.708 256.664 235.34 256.664C235.052 256.664 234.788 256.704 234.548 256.784C234.316 256.856 234.104 256.956 233.912 257.084C233.72 257.204 233.544 257.348 233.384 257.516C233.232 257.684 233.092 257.86 232.964 258.044V256.796H232.04V264.92H232.964V261.812C233.084 261.988 233.22 262.156 233.372 262.316C233.532 262.476 233.708 262.616 233.9 262.736C234.092 262.856 234.308 262.952 234.548 263.024C234.788 263.096 235.052 263.132 235.34 263.132C235.716 263.132 236.08 263.06 236.432 262.916C236.792 262.764 237.108 262.552 237.38 262.28C237.66 262 237.884 261.66 238.052 261.26C238.22 260.86 238.304 260.404 238.304 259.892ZM237.356 259.904C237.356 260.28 237.296 260.62 237.176 260.924C237.064 261.22 236.908 261.472 236.708 261.68C236.516 261.88 236.284 262.036 236.012 262.148C235.748 262.252 235.468 262.304 235.172 262.304C234.884 262.304 234.604 262.248 234.332 262.136C234.068 262.016 233.828 261.852 233.612 261.644C233.404 261.436 233.236 261.184 233.108 260.888C232.988 260.584 232.928 260.252 232.928 259.892C232.928 259.532 232.988 259.204 233.108 258.908C233.236 258.612 233.404 258.36 233.612 258.152C233.828 257.944 234.068 257.784 234.332 257.672C234.604 257.552 234.884 257.492 235.172 257.492C235.468 257.492 235.748 257.548 236.012 257.66C236.276 257.772 236.508 257.936 236.708 258.152C236.908 258.36 237.064 258.612 237.176 258.908C237.296 259.204 237.356 259.536 237.356 259.904ZM244.269 261.26V261.236C244.269 260.956 244.209 260.72 244.089 260.528C243.977 260.336 243.825 260.172 243.633 260.036C243.441 259.9 243.225 259.788 242.985 259.7C242.753 259.612 242.517 259.532 242.277 259.46C242.069 259.396 241.869 259.332 241.677 259.268C241.485 259.204 241.313 259.132 241.161 259.052C241.017 258.972 240.901 258.88 240.813 258.776C240.725 258.664 240.681 258.536 240.681 258.392V258.368C240.681 258.112 240.789 257.9 241.005 257.732C241.221 257.556 241.513 257.468 241.881 257.468C242.185 257.468 242.493 257.524 242.805 257.636C243.125 257.74 243.429 257.884 243.717 258.068L244.137 257.372C243.817 257.164 243.461 257 243.069 256.88C242.677 256.752 242.289 256.688 241.905 256.688C241.601 256.688 241.317 256.732 241.053 256.82C240.797 256.9 240.573 257.02 240.381 257.18C240.197 257.332 240.053 257.52 239.949 257.744C239.845 257.96 239.793 258.2 239.793 258.464V258.488C239.793 258.776 239.853 259.016 239.973 259.208C240.101 259.4 240.261 259.56 240.453 259.688C240.653 259.816 240.873 259.924 241.113 260.012C241.361 260.092 241.605 260.168 241.845 260.24C242.045 260.296 242.237 260.356 242.421 260.42C242.613 260.484 242.781 260.56 242.925 260.648C243.069 260.728 243.181 260.824 243.261 260.936C243.349 261.048 243.393 261.18 243.393 261.332V261.356C243.393 261.66 243.273 261.9 243.033 262.076C242.793 262.252 242.485 262.34 242.109 262.34C241.741 262.34 241.373 262.272 241.005 262.136C240.645 262 240.297 261.804 239.961 261.548L239.493 262.208C239.845 262.488 240.249 262.712 240.705 262.88C241.161 263.04 241.613 263.12 242.061 263.12C242.373 263.12 242.661 263.08 242.925 263C243.197 262.912 243.429 262.788 243.621 262.628C243.821 262.468 243.977 262.276 244.089 262.052C244.209 261.82 244.269 261.556 244.269 261.26ZM250.389 260.348C250.389 260.636 250.341 260.9 250.245 261.14C250.149 261.38 250.017 261.588 249.849 261.764C249.689 261.932 249.493 262.064 249.261 262.16C249.037 262.248 248.793 262.292 248.529 262.292C247.977 262.292 247.553 262.124 247.257 261.788C246.961 261.452 246.813 260.996 246.813 260.42V256.796H245.889V260.648C245.889 261.016 245.941 261.352 246.045 261.656C246.157 261.96 246.313 262.224 246.513 262.448C246.721 262.664 246.969 262.832 247.257 262.952C247.553 263.072 247.889 263.132 248.265 263.132C248.801 263.132 249.237 263.016 249.573 262.784C249.909 262.544 250.181 262.256 250.389 261.92V263H251.301V256.796H250.389V260.348ZM258.3 257.9C258.132 257.548 257.884 257.256 257.556 257.024C257.228 256.784 256.812 256.664 256.308 256.664C256.044 256.664 255.812 256.696 255.612 256.76C255.412 256.824 255.232 256.912 255.072 257.024C254.912 257.128 254.768 257.252 254.64 257.396C254.52 257.54 254.408 257.688 254.304 257.84V256.796H253.38V263H254.304V259.46C254.304 259.172 254.348 258.912 254.436 258.68C254.524 258.44 254.644 258.232 254.796 258.056C254.956 257.88 255.14 257.744 255.348 257.648C255.556 257.552 255.784 257.504 256.032 257.504C256.528 257.504 256.916 257.668 257.196 257.996C257.484 258.316 257.628 258.768 257.628 259.352V263H258.54V259.424C258.54 259.12 258.584 258.848 258.672 258.608C258.768 258.368 258.892 258.168 259.044 258.008C259.204 257.84 259.388 257.716 259.596 257.636C259.804 257.548 260.024 257.504 260.256 257.504C260.76 257.504 261.152 257.668 261.432 257.996C261.72 258.316 261.864 258.776 261.864 259.376V263H262.788V259.16C262.788 258.384 262.584 257.776 262.176 257.336C261.768 256.888 261.204 256.664 260.484 256.664C260.212 256.664 259.964 256.696 259.74 256.76C259.524 256.824 259.328 256.912 259.152 257.024C258.976 257.136 258.816 257.268 258.672 257.42C258.536 257.572 258.412 257.732 258.3 257.9ZM269.399 263V254.24H268.475V263H269.399ZM277.628 259.892C277.628 259.452 277.548 259.036 277.388 258.644C277.228 258.252 277.004 257.912 276.716 257.624C276.428 257.328 276.084 257.096 275.684 256.928C275.292 256.752 274.864 256.664 274.4 256.664C273.928 256.664 273.492 256.752 273.092 256.928C272.7 257.096 272.36 257.328 272.072 257.624C271.784 257.92 271.56 258.268 271.4 258.668C271.24 259.06 271.16 259.476 271.16 259.916C271.16 260.356 271.24 260.772 271.4 261.164C271.56 261.556 271.784 261.9 272.072 262.196C272.36 262.484 272.7 262.716 273.092 262.892C273.484 263.06 273.912 263.144 274.376 263.144C274.84 263.144 275.272 263.06 275.672 262.892C276.072 262.716 276.416 262.48 276.704 262.184C276.992 261.888 277.216 261.544 277.376 261.152C277.544 260.752 277.628 260.332 277.628 259.892ZM276.68 259.916C276.68 260.252 276.624 260.568 276.512 260.864C276.4 261.152 276.244 261.404 276.044 261.62C275.844 261.836 275.604 262.008 275.324 262.136C275.044 262.256 274.736 262.316 274.4 262.316C274.072 262.316 273.768 262.252 273.488 262.124C273.208 261.996 272.964 261.824 272.756 261.608C272.556 261.392 272.396 261.136 272.276 260.84C272.164 260.544 272.108 260.228 272.108 259.892C272.108 259.556 272.164 259.244 272.276 258.956C272.388 258.66 272.54 258.404 272.732 258.188C272.932 257.964 273.172 257.792 273.452 257.672C273.732 257.544 274.04 257.48 274.376 257.48C274.704 257.48 275.008 257.544 275.288 257.672C275.568 257.8 275.812 257.976 276.02 258.2C276.228 258.416 276.388 258.672 276.5 258.968C276.62 259.264 276.68 259.58 276.68 259.916ZM280.226 260.528C280.226 260.064 280.29 259.656 280.418 259.304C280.546 258.944 280.722 258.644 280.946 258.404C281.17 258.164 281.43 257.984 281.726 257.864C282.03 257.744 282.35 257.684 282.686 257.684H282.758V256.688C282.462 256.68 282.186 256.716 281.93 256.796C281.674 256.876 281.438 256.996 281.222 257.156C281.006 257.308 280.814 257.492 280.646 257.708C280.478 257.924 280.338 258.16 280.226 258.416V256.796H279.302V263H280.226V260.528ZM284.447 260.24H289.367C289.375 260.184 289.379 260.132 289.379 260.084C289.379 260.036 289.379 259.992 289.379 259.952C289.379 259.496 289.315 259.068 289.187 258.668C289.059 258.268 288.871 257.92 288.623 257.624C288.375 257.328 288.071 257.096 287.711 256.928C287.351 256.752 286.943 256.664 286.487 256.664C286.055 256.664 285.655 256.748 285.287 256.916C284.927 257.084 284.615 257.316 284.351 257.612C284.087 257.9 283.879 258.244 283.727 258.644C283.583 259.036 283.511 259.456 283.511 259.904C283.511 260.384 283.591 260.824 283.751 261.224C283.919 261.624 284.143 261.968 284.423 262.256C284.703 262.536 285.031 262.756 285.407 262.916C285.783 263.068 286.183 263.144 286.607 263.144C287.199 263.144 287.695 263.04 288.095 262.832C288.495 262.616 288.851 262.332 289.163 261.98L288.587 261.464C288.331 261.728 288.047 261.94 287.735 262.1C287.431 262.26 287.063 262.34 286.631 262.34C286.359 262.34 286.099 262.296 285.851 262.208C285.603 262.112 285.379 261.976 285.179 261.8C284.979 261.616 284.815 261.396 284.687 261.14C284.559 260.876 284.479 260.576 284.447 260.24ZM284.447 259.556C284.479 259.252 284.551 258.972 284.663 258.716C284.775 258.46 284.919 258.24 285.095 258.056C285.271 257.864 285.475 257.716 285.707 257.612C285.939 257.5 286.191 257.444 286.463 257.444C286.775 257.444 287.047 257.504 287.279 257.624C287.519 257.736 287.719 257.888 287.879 258.08C288.047 258.272 288.175 258.496 288.263 258.752C288.359 259.008 288.419 259.276 288.443 259.556H284.447ZM295.917 257.9C295.749 257.548 295.501 257.256 295.173 257.024C294.845 256.784 294.429 256.664 293.925 256.664C293.661 256.664 293.429 256.696 293.229 256.76C293.029 256.824 292.849 256.912 292.689 257.024C292.529 257.128 292.385 257.252 292.257 257.396C292.137 257.54 292.025 257.688 291.921 257.84V256.796H290.997V263H291.921V259.46C291.921 259.172 291.965 258.912 292.053 258.68C292.141 258.44 292.261 258.232 292.413 258.056C292.573 257.88 292.757 257.744 292.965 257.648C293.173 257.552 293.401 257.504 293.649 257.504C294.145 257.504 294.533 257.668 294.813 257.996C295.101 258.316 295.245 258.768 295.245 259.352V263H296.157V259.424C296.157 259.12 296.201 258.848 296.289 258.608C296.385 258.368 296.509 258.168 296.661 258.008C296.821 257.84 297.005 257.716 297.213 257.636C297.421 257.548 297.641 257.504 297.873 257.504C298.377 257.504 298.769 257.668 299.049 257.996C299.337 258.316 299.481 258.776 299.481 259.376V263H300.405V259.16C300.405 258.384 300.201 257.776 299.793 257.336C299.385 256.888 298.821 256.664 298.101 256.664C297.829 256.664 297.581 256.696 297.357 256.76C297.141 256.824 296.945 256.912 296.769 257.024C296.593 257.136 296.433 257.268 296.289 257.42C296.153 257.572 296.029 257.732 295.917 257.9ZM307.089 255.44V254.42H306.033V255.44H307.089ZM307.017 263V256.796H306.093V263H307.017ZM315.425 259.892C315.425 259.38 315.341 258.924 315.173 258.524C315.005 258.124 314.781 257.788 314.501 257.516C314.221 257.236 313.901 257.024 313.541 256.88C313.189 256.736 312.829 256.664 312.461 256.664C312.173 256.664 311.909 256.704 311.669 256.784C311.437 256.856 311.225 256.956 311.033 257.084C310.841 257.204 310.665 257.348 310.505 257.516C310.353 257.684 310.213 257.86 310.085 258.044V256.796H309.161V264.92H310.085V261.812C310.205 261.988 310.341 262.156 310.493 262.316C310.653 262.476 310.829 262.616 311.021 262.736C311.213 262.856 311.429 262.952 311.669 263.024C311.909 263.096 312.173 263.132 312.461 263.132C312.837 263.132 313.201 263.06 313.553 262.916C313.913 262.764 314.229 262.552 314.501 262.28C314.781 262 315.005 261.66 315.173 261.26C315.341 260.86 315.425 260.404 315.425 259.892ZM314.477 259.904C314.477 260.28 314.417 260.62 314.297 260.924C314.185 261.22 314.029 261.472 313.829 261.68C313.637 261.88 313.405 262.036 313.133 262.148C312.869 262.252 312.589 262.304 312.293 262.304C312.005 262.304 311.725 262.248 311.453 262.136C311.189 262.016 310.949 261.852 310.733 261.644C310.525 261.436 310.357 261.184 310.229 260.888C310.109 260.584 310.049 260.252 310.049 259.892C310.049 259.532 310.109 259.204 310.229 258.908C310.357 258.612 310.525 258.36 310.733 258.152C310.949 257.944 311.189 257.784 311.453 257.672C311.725 257.552 312.005 257.492 312.293 257.492C312.589 257.492 312.869 257.548 313.133 257.66C313.397 257.772 313.629 257.936 313.829 258.152C314.029 258.36 314.185 258.612 314.297 258.908C314.417 259.204 314.477 259.536 314.477 259.904ZM321.39 261.26V261.236C321.39 260.956 321.33 260.72 321.21 260.528C321.098 260.336 320.946 260.172 320.754 260.036C320.562 259.9 320.346 259.788 320.106 259.7C319.874 259.612 319.638 259.532 319.398 259.46C319.19 259.396 318.99 259.332 318.798 259.268C318.606 259.204 318.434 259.132 318.282 259.052C318.138 258.972 318.022 258.88 317.934 258.776C317.846 258.664 317.802 258.536 317.802 258.392V258.368C317.802 258.112 317.91 257.9 318.126 257.732C318.342 257.556 318.634 257.468 319.002 257.468C319.306 257.468 319.614 257.524 319.926 257.636C320.246 257.74 320.55 257.884 320.838 258.068L321.258 257.372C320.938 257.164 320.582 257 320.19 256.88C319.798 256.752 319.41 256.688 319.026 256.688C318.722 256.688 318.438 256.732 318.174 256.82C317.918 256.9 317.694 257.02 317.502 257.18C317.318 257.332 317.174 257.52 317.07 257.744C316.966 257.96 316.914 258.2 316.914 258.464V258.488C316.914 258.776 316.974 259.016 317.094 259.208C317.222 259.4 317.382 259.56 317.574 259.688C317.774 259.816 317.994 259.924 318.234 260.012C318.482 260.092 318.726 260.168 318.966 260.24C319.166 260.296 319.358 260.356 319.542 260.42C319.734 260.484 319.902 260.56 320.046 260.648C320.19 260.728 320.302 260.824 320.382 260.936C320.47 261.048 320.514 261.18 320.514 261.332V261.356C320.514 261.66 320.394 261.9 320.154 262.076C319.914 262.252 319.606 262.34 319.23 262.34C318.862 262.34 318.494 262.272 318.126 262.136C317.766 262 317.418 261.804 317.082 261.548L316.614 262.208C316.966 262.488 317.37 262.712 317.826 262.88C318.282 263.04 318.734 263.12 319.182 263.12C319.494 263.12 319.782 263.08 320.046 263C320.318 262.912 320.55 262.788 320.742 262.628C320.942 262.468 321.098 262.276 321.21 262.052C321.33 261.82 321.39 261.556 321.39 261.26ZM327.51 260.348C327.51 260.636 327.462 260.9 327.366 261.14C327.27 261.38 327.138 261.588 326.97 261.764C326.81 261.932 326.614 262.064 326.382 262.16C326.158 262.248 325.914 262.292 325.65 262.292C325.098 262.292 324.674 262.124 324.378 261.788C324.082 261.452 323.934 260.996 323.934 260.42V256.796H323.01V260.648C323.01 261.016 323.062 261.352 323.166 261.656C323.278 261.96 323.434 262.224 323.634 262.448C323.842 262.664 324.09 262.832 324.378 262.952C324.674 263.072 325.01 263.132 325.386 263.132C325.922 263.132 326.358 263.016 326.694 262.784C327.03 262.544 327.302 262.256 327.51 261.92V263H328.422V256.796H327.51V260.348ZM335.421 257.9C335.253 257.548 335.005 257.256 334.677 257.024C334.349 256.784 333.933 256.664 333.429 256.664C333.165 256.664 332.933 256.696 332.733 256.76C332.533 256.824 332.353 256.912 332.193 257.024C332.033 257.128 331.889 257.252 331.761 257.396C331.641 257.54 331.529 257.688 331.425 257.84V256.796H330.501V263H331.425V259.46C331.425 259.172 331.469 258.912 331.557 258.68C331.645 258.44 331.765 258.232 331.917 258.056C332.077 257.88 332.261 257.744 332.469 257.648C332.677 257.552 332.905 257.504 333.153 257.504C333.649 257.504 334.037 257.668 334.317 257.996C334.605 258.316 334.749 258.768 334.749 259.352V263H335.661V259.424C335.661 259.12 335.705 258.848 335.793 258.608C335.889 258.368 336.013 258.168 336.165 258.008C336.325 257.84 336.509 257.716 336.717 257.636C336.925 257.548 337.145 257.504 337.377 257.504C337.881 257.504 338.273 257.668 338.553 257.996C338.841 258.316 338.985 258.776 338.985 259.376V263H339.909V259.16C339.909 258.384 339.705 257.776 339.297 257.336C338.889 256.888 338.325 256.664 337.605 256.664C337.333 256.664 337.085 256.696 336.861 256.76C336.645 256.824 336.449 256.912 336.273 257.024C336.097 257.136 335.937 257.268 335.793 257.42C335.657 257.572 335.533 257.732 335.421 257.9ZM114.536 293V284.24H113.612V293H114.536ZM122.764 289.892C122.764 289.452 122.684 289.036 122.524 288.644C122.364 288.252 122.14 287.912 121.852 287.624C121.564 287.328 121.22 287.096 120.82 286.928C120.428 286.752 120 286.664 119.536 286.664C119.064 286.664 118.628 286.752 118.228 286.928C117.836 287.096 117.496 287.328 117.208 287.624C116.92 287.92 116.696 288.268 116.536 288.668C116.376 289.06 116.296 289.476 116.296 289.916C116.296 290.356 116.376 290.772 116.536 291.164C116.696 291.556 116.92 291.9 117.208 292.196C117.496 292.484 117.836 292.716 118.228 292.892C118.62 293.06 119.048 293.144 119.512 293.144C119.976 293.144 120.408 293.06 120.808 292.892C121.208 292.716 121.552 292.48 121.84 292.184C122.128 291.888 122.352 291.544 122.512 291.152C122.68 290.752 122.764 290.332 122.764 289.892ZM121.816 289.916C121.816 290.252 121.76 290.568 121.648 290.864C121.536 291.152 121.38 291.404 121.18 291.62C120.98 291.836 120.74 292.008 120.46 292.136C120.18 292.256 119.872 292.316 119.536 292.316C119.208 292.316 118.904 292.252 118.624 292.124C118.344 291.996 118.1 291.824 117.892 291.608C117.692 291.392 117.532 291.136 117.412 290.84C117.3 290.544 117.244 290.228 117.244 289.892C117.244 289.556 117.3 289.244 117.412 288.956C117.524 288.66 117.676 288.404 117.868 288.188C118.068 287.964 118.308 287.792 118.588 287.672C118.868 287.544 119.176 287.48 119.512 287.48C119.84 287.48 120.144 287.544 120.424 287.672C120.704 287.8 120.948 287.976 121.156 288.2C121.364 288.416 121.524 288.672 121.636 288.968C121.756 289.264 121.816 289.58 121.816 289.916ZM125.362 290.528C125.362 290.064 125.426 289.656 125.554 289.304C125.682 288.944 125.858 288.644 126.082 288.404C126.306 288.164 126.566 287.984 126.862 287.864C127.166 287.744 127.486 287.684 127.822 287.684H127.894V286.688C127.598 286.68 127.322 286.716 127.066 286.796C126.81 286.876 126.574 286.996 126.358 287.156C126.142 287.308 125.95 287.492 125.782 287.708C125.614 287.924 125.474 288.16 125.362 288.416V286.796H124.438V293H125.362V290.528ZM129.584 290.24H134.504C134.512 290.184 134.516 290.132 134.516 290.084C134.516 290.036 134.516 289.992 134.516 289.952C134.516 289.496 134.452 289.068 134.324 288.668C134.196 288.268 134.008 287.92 133.76 287.624C133.512 287.328 133.208 287.096 132.848 286.928C132.488 286.752 132.08 286.664 131.624 286.664C131.192 286.664 130.792 286.748 130.424 286.916C130.064 287.084 129.752 287.316 129.488 287.612C129.224 287.9 129.016 288.244 128.864 288.644C128.72 289.036 128.648 289.456 128.648 289.904C128.648 290.384 128.728 290.824 128.888 291.224C129.056 291.624 129.28 291.968 129.56 292.256C129.84 292.536 130.168 292.756 130.544 292.916C130.92 293.068 131.32 293.144 131.744 293.144C132.336 293.144 132.832 293.04 133.232 292.832C133.632 292.616 133.988 292.332 134.3 291.98L133.724 291.464C133.468 291.728 133.184 291.94 132.872 292.1C132.568 292.26 132.2 292.34 131.768 292.34C131.496 292.34 131.236 292.296 130.988 292.208C130.74 292.112 130.516 291.976 130.316 291.8C130.116 291.616 129.952 291.396 129.824 291.14C129.696 290.876 129.616 290.576 129.584 290.24ZM129.584 289.556C129.616 289.252 129.688 288.972 129.8 288.716C129.912 288.46 130.056 288.24 130.232 288.056C130.408 287.864 130.612 287.716 130.844 287.612C131.076 287.5 131.328 287.444 131.6 287.444C131.912 287.444 132.184 287.504 132.416 287.624C132.656 287.736 132.856 287.888 133.016 288.08C133.184 288.272 133.312 288.496 133.4 288.752C133.496 289.008 133.556 289.276 133.58 289.556H129.584ZM141.054 287.9C140.886 287.548 140.638 287.256 140.31 287.024C139.982 286.784 139.566 286.664 139.062 286.664C138.798 286.664 138.566 286.696 138.366 286.76C138.166 286.824 137.986 286.912 137.826 287.024C137.666 287.128 137.522 287.252 137.394 287.396C137.274 287.54 137.162 287.688 137.058 287.84V286.796H136.134V293H137.058V289.46C137.058 289.172 137.102 288.912 137.19 288.68C137.278 288.44 137.398 288.232 137.55 288.056C137.71 287.88 137.894 287.744 138.102 287.648C138.31 287.552 138.538 287.504 138.786 287.504C139.282 287.504 139.67 287.668 139.95 287.996C140.238 288.316 140.382 288.768 140.382 289.352V293H141.294V289.424C141.294 289.12 141.338 288.848 141.426 288.608C141.522 288.368 141.646 288.168 141.798 288.008C141.958 287.84 142.142 287.716 142.35 287.636C142.558 287.548 142.778 287.504 143.01 287.504C143.514 287.504 143.906 287.668 144.186 287.996C144.474 288.316 144.618 288.776 144.618 289.376V293H145.542V289.16C145.542 288.384 145.338 287.776 144.93 287.336C144.522 286.888 143.958 286.664 143.238 286.664C142.966 286.664 142.718 286.696 142.494 286.76C142.278 286.824 142.082 286.912 141.906 287.024C141.73 287.136 141.57 287.268 141.426 287.42C141.29 287.572 141.166 287.732 141.054 287.9ZM152.225 285.44V284.42H151.169V285.44H152.225ZM152.153 293V286.796H151.229V293H152.153ZM160.562 289.892C160.562 289.38 160.478 288.924 160.31 288.524C160.142 288.124 159.918 287.788 159.638 287.516C159.358 287.236 159.038 287.024 158.678 286.88C158.326 286.736 157.966 286.664 157.598 286.664C157.31 286.664 157.046 286.704 156.806 286.784C156.574 286.856 156.362 286.956 156.17 287.084C155.978 287.204 155.802 287.348 155.642 287.516C155.49 287.684 155.35 287.86 155.222 288.044V286.796H154.298V294.92H155.222V291.812C155.342 291.988 155.478 292.156 155.63 292.316C155.79 292.476 155.966 292.616 156.158 292.736C156.35 292.856 156.566 292.952 156.806 293.024C157.046 293.096 157.31 293.132 157.598 293.132C157.974 293.132 158.338 293.06 158.69 292.916C159.05 292.764 159.366 292.552 159.638 292.28C159.918 292 160.142 291.66 160.31 291.26C160.478 290.86 160.562 290.404 160.562 289.892ZM159.614 289.904C159.614 290.28 159.554 290.62 159.434 290.924C159.322 291.22 159.166 291.472 158.966 291.68C158.774 291.88 158.542 292.036 158.27 292.148C158.006 292.252 157.726 292.304 157.43 292.304C157.142 292.304 156.862 292.248 156.59 292.136C156.326 292.016 156.086 291.852 155.87 291.644C155.662 291.436 155.494 291.184 155.366 290.888C155.246 290.584 155.186 290.252 155.186 289.892C155.186 289.532 155.246 289.204 155.366 288.908C155.494 288.612 155.662 288.36 155.87 288.152C156.086 287.944 156.326 287.784 156.59 287.672C156.862 287.552 157.142 287.492 157.43 287.492C157.726 287.492 158.006 287.548 158.27 287.66C158.534 287.772 158.766 287.936 158.966 288.152C159.166 288.36 159.322 288.612 159.434 288.908C159.554 289.204 159.614 289.536 159.614 289.904ZM166.526 291.26V291.236C166.526 290.956 166.466 290.72 166.346 290.528C166.234 290.336 166.082 290.172 165.89 290.036C165.698 289.9 165.482 289.788 165.242 289.7C165.01 289.612 164.774 289.532 164.534 289.46C164.326 289.396 164.126 289.332 163.934 289.268C163.742 289.204 163.57 289.132 163.418 289.052C163.274 288.972 163.158 288.88 163.07 288.776C162.982 288.664 162.938 288.536 162.938 288.392V288.368C162.938 288.112 163.046 287.9 163.262 287.732C163.478 287.556 163.77 287.468 164.138 287.468C164.442 287.468 164.75 287.524 165.062 287.636C165.382 287.74 165.686 287.884 165.974 288.068L166.394 287.372C166.074 287.164 165.718 287 165.326 286.88C164.934 286.752 164.546 286.688 164.162 286.688C163.858 286.688 163.574 286.732 163.31 286.82C163.054 286.9 162.83 287.02 162.638 287.18C162.454 287.332 162.31 287.52 162.206 287.744C162.102 287.96 162.05 288.2 162.05 288.464V288.488C162.05 288.776 162.11 289.016 162.23 289.208C162.358 289.4 162.518 289.56 162.71 289.688C162.91 289.816 163.13 289.924 163.37 290.012C163.618 290.092 163.862 290.168 164.102 290.24C164.302 290.296 164.494 290.356 164.678 290.42C164.87 290.484 165.038 290.56 165.182 290.648C165.326 290.728 165.438 290.824 165.518 290.936C165.606 291.048 165.65 291.18 165.65 291.332V291.356C165.65 291.66 165.53 291.9 165.29 292.076C165.05 292.252 164.742 292.34 164.366 292.34C163.998 292.34 163.63 292.272 163.262 292.136C162.902 292 162.554 291.804 162.218 291.548L161.75 292.208C162.102 292.488 162.506 292.712 162.962 292.88C163.418 293.04 163.87 293.12 164.318 293.12C164.63 293.12 164.918 293.08 165.182 293C165.454 292.912 165.686 292.788 165.878 292.628C166.078 292.468 166.234 292.276 166.346 292.052C166.466 291.82 166.526 291.556 166.526 291.26ZM172.647 290.348C172.647 290.636 172.599 290.9 172.503 291.14C172.407 291.38 172.275 291.588 172.107 291.764C171.947 291.932 171.751 292.064 171.519 292.16C171.295 292.248 171.051 292.292 170.787 292.292C170.235 292.292 169.811 292.124 169.515 291.788C169.219 291.452 169.071 290.996 169.071 290.42V286.796H168.147V290.648C168.147 291.016 168.199 291.352 168.303 291.656C168.415 291.96 168.571 292.224 168.771 292.448C168.979 292.664 169.227 292.832 169.515 292.952C169.811 293.072 170.147 293.132 170.523 293.132C171.059 293.132 171.495 293.016 171.831 292.784C172.167 292.544 172.439 292.256 172.647 291.92V293H173.559V286.796H172.647V290.348ZM180.557 287.9C180.389 287.548 180.141 287.256 179.813 287.024C179.485 286.784 179.069 286.664 178.565 286.664C178.301 286.664 178.069 286.696 177.869 286.76C177.669 286.824 177.489 286.912 177.329 287.024C177.169 287.128 177.025 287.252 176.897 287.396C176.777 287.54 176.665 287.688 176.561 287.84V286.796H175.637V293H176.561V289.46C176.561 289.172 176.605 288.912 176.693 288.68C176.781 288.44 176.901 288.232 177.053 288.056C177.213 287.88 177.397 287.744 177.605 287.648C177.813 287.552 178.041 287.504 178.289 287.504C178.785 287.504 179.173 287.668 179.453 287.996C179.741 288.316 179.885 288.768 179.885 289.352V293H180.797V289.424C180.797 289.12 180.841 288.848 180.929 288.608C181.025 288.368 181.149 288.168 181.301 288.008C181.461 287.84 181.645 287.716 181.853 287.636C182.061 287.548 182.281 287.504 182.513 287.504C183.017 287.504 183.409 287.668 183.689 287.996C183.977 288.316 184.121 288.776 184.121 289.376V293H185.045V289.16C185.045 288.384 184.841 287.776 184.433 287.336C184.025 286.888 183.461 286.664 182.741 286.664C182.469 286.664 182.221 286.696 181.997 286.76C181.781 286.824 181.585 286.912 181.409 287.024C181.233 287.136 181.073 287.268 180.929 287.42C180.793 287.572 180.669 287.732 180.557 287.9ZM191.657 293V284.24H190.733V293H191.657ZM199.886 289.892C199.886 289.452 199.806 289.036 199.646 288.644C199.486 288.252 199.262 287.912 198.974 287.624C198.686 287.328 198.342 287.096 197.942 286.928C197.55 286.752 197.122 286.664 196.658 286.664C196.186 286.664 195.75 286.752 195.35 286.928C194.958 287.096 194.618 287.328 194.33 287.624C194.042 287.92 193.818 288.268 193.658 288.668C193.498 289.06 193.418 289.476 193.418 289.916C193.418 290.356 193.498 290.772 193.658 291.164C193.818 291.556 194.042 291.9 194.33 292.196C194.618 292.484 194.958 292.716 195.35 292.892C195.742 293.06 196.17 293.144 196.634 293.144C197.098 293.144 197.53 293.06 197.93 292.892C198.33 292.716 198.674 292.48 198.962 292.184C199.25 291.888 199.474 291.544 199.634 291.152C199.802 290.752 199.886 290.332 199.886 289.892ZM198.938 289.916C198.938 290.252 198.882 290.568 198.77 290.864C198.658 291.152 198.502 291.404 198.302 291.62C198.102 291.836 197.862 292.008 197.582 292.136C197.302 292.256 196.994 292.316 196.658 292.316C196.33 292.316 196.026 292.252 195.746 292.124C195.466 291.996 195.222 291.824 195.014 291.608C194.814 291.392 194.654 291.136 194.534 290.84C194.422 290.544 194.366 290.228 194.366 289.892C194.366 289.556 194.422 289.244 194.534 288.956C194.646 288.66 194.798 288.404 194.99 288.188C195.19 287.964 195.43 287.792 195.71 287.672C195.99 287.544 196.298 287.48 196.634 287.48C196.962 287.48 197.266 287.544 197.546 287.672C197.826 287.8 198.07 287.976 198.278 288.2C198.486 288.416 198.646 288.672 198.758 288.968C198.878 289.264 198.938 289.58 198.938 289.916ZM202.483 290.528C202.483 290.064 202.547 289.656 202.675 289.304C202.803 288.944 202.979 288.644 203.203 288.404C203.427 288.164 203.687 287.984 203.983 287.864C204.287 287.744 204.607 287.684 204.943 287.684H205.015V286.688C204.719 286.68 204.443 286.716 204.187 286.796C203.931 286.876 203.695 286.996 203.479 287.156C203.263 287.308 203.071 287.492 202.903 287.708C202.735 287.924 202.595 288.16 202.483 288.416V286.796H201.559V293H202.483V290.528ZM206.705 290.24H211.625C211.633 290.184 211.637 290.132 211.637 290.084C211.637 290.036 211.637 289.992 211.637 289.952C211.637 289.496 211.573 289.068 211.445 288.668C211.317 288.268 211.129 287.92 210.881 287.624C210.633 287.328 210.329 287.096 209.969 286.928C209.609 286.752 209.201 286.664 208.745 286.664C208.313 286.664 207.913 286.748 207.545 286.916C207.185 287.084 206.873 287.316 206.609 287.612C206.345 287.9 206.137 288.244 205.985 288.644C205.841 289.036 205.769 289.456 205.769 289.904C205.769 290.384 205.849 290.824 206.009 291.224C206.177 291.624 206.401 291.968 206.681 292.256C206.961 292.536 207.289 292.756 207.665 292.916C208.041 293.068 208.441 293.144 208.865 293.144C209.457 293.144 209.953 293.04 210.353 292.832C210.753 292.616 211.109 292.332 211.421 291.98L210.845 291.464C210.589 291.728 210.305 291.94 209.993 292.1C209.689 292.26 209.321 292.34 208.889 292.34C208.617 292.34 208.357 292.296 208.109 292.208C207.861 292.112 207.637 291.976 207.437 291.8C207.237 291.616 207.073 291.396 206.945 291.14C206.817 290.876 206.737 290.576 206.705 290.24ZM206.705 289.556C206.737 289.252 206.809 288.972 206.921 288.716C207.033 288.46 207.177 288.24 207.353 288.056C207.529 287.864 207.733 287.716 207.965 287.612C208.197 287.5 208.449 287.444 208.721 287.444C209.033 287.444 209.305 287.504 209.537 287.624C209.777 287.736 209.977 287.888 210.137 288.08C210.305 288.272 210.433 288.496 210.521 288.752C210.617 289.008 210.677 289.276 210.701 289.556H206.705ZM218.175 287.9C218.007 287.548 217.759 287.256 217.431 287.024C217.103 286.784 216.687 286.664 216.183 286.664C215.919 286.664 215.687 286.696 215.487 286.76C215.287 286.824 215.107 286.912 214.947 287.024C214.787 287.128 214.643 287.252 214.515 287.396C214.395 287.54 214.283 287.688 214.179 287.84V286.796H213.255V293H214.179V289.46C214.179 289.172 214.223 288.912 214.311 288.68C214.399 288.44 214.519 288.232 214.671 288.056C214.831 287.88 215.015 287.744 215.223 287.648C215.431 287.552 215.659 287.504 215.907 287.504C216.403 287.504 216.791 287.668 217.071 287.996C217.359 288.316 217.503 288.768 217.503 289.352V293H218.415V289.424C218.415 289.12 218.459 288.848 218.547 288.608C218.643 288.368 218.767 288.168 218.919 288.008C219.079 287.84 219.263 287.716 219.471 287.636C219.679 287.548 219.899 287.504 220.131 287.504C220.635 287.504 221.027 287.668 221.307 287.996C221.595 288.316 221.739 288.776 221.739 289.376V293H222.663V289.16C222.663 288.384 222.459 287.776 222.051 287.336C221.643 286.888 221.079 286.664 220.359 286.664C220.087 286.664 219.839 286.696 219.615 286.76C219.399 286.824 219.203 286.912 219.027 287.024C218.851 287.136 218.691 287.268 218.547 287.42C218.411 287.572 218.287 287.732 218.175 287.9ZM229.346 285.44V284.42H228.29V285.44H229.346ZM229.274 293V286.796H228.35V293H229.274ZM237.683 289.892C237.683 289.38 237.599 288.924 237.431 288.524C237.263 288.124 237.039 287.788 236.759 287.516C236.479 287.236 236.159 287.024 235.799 286.88C235.447 286.736 235.087 286.664 234.719 286.664C234.431 286.664 234.167 286.704 233.927 286.784C233.695 286.856 233.483 286.956 233.291 287.084C233.099 287.204 232.923 287.348 232.763 287.516C232.611 287.684 232.471 287.86 232.343 288.044V286.796H231.419V294.92H232.343V291.812C232.463 291.988 232.599 292.156 232.751 292.316C232.911 292.476 233.087 292.616 233.279 292.736C233.471 292.856 233.687 292.952 233.927 293.024C234.167 293.096 234.431 293.132 234.719 293.132C235.095 293.132 235.459 293.06 235.811 292.916C236.171 292.764 236.487 292.552 236.759 292.28C237.039 292 237.263 291.66 237.431 291.26C237.599 290.86 237.683 290.404 237.683 289.892ZM236.735 289.904C236.735 290.28 236.675 290.62 236.555 290.924C236.443 291.22 236.287 291.472 236.087 291.68C235.895 291.88 235.663 292.036 235.391 292.148C235.127 292.252 234.847 292.304 234.551 292.304C234.263 292.304 233.983 292.248 233.711 292.136C233.447 292.016 233.207 291.852 232.991 291.644C232.783 291.436 232.615 291.184 232.487 290.888C232.367 290.584 232.307 290.252 232.307 289.892C232.307 289.532 232.367 289.204 232.487 288.908C232.615 288.612 232.783 288.36 232.991 288.152C233.207 287.944 233.447 287.784 233.711 287.672C233.983 287.552 234.263 287.492 234.551 287.492C234.847 287.492 235.127 287.548 235.391 287.66C235.655 287.772 235.887 287.936 236.087 288.152C236.287 288.36 236.443 288.612 236.555 288.908C236.675 289.204 236.735 289.536 236.735 289.904ZM243.647 291.26V291.236C243.647 290.956 243.587 290.72 243.467 290.528C243.355 290.336 243.203 290.172 243.011 290.036C242.819 289.9 242.603 289.788 242.363 289.7C242.131 289.612 241.895 289.532 241.655 289.46C241.447 289.396 241.247 289.332 241.055 289.268C240.863 289.204 240.691 289.132 240.539 289.052C240.395 288.972 240.279 288.88 240.191 288.776C240.103 288.664 240.059 288.536 240.059 288.392V288.368C240.059 288.112 240.167 287.9 240.383 287.732C240.599 287.556 240.891 287.468 241.259 287.468C241.563 287.468 241.871 287.524 242.183 287.636C242.503 287.74 242.807 287.884 243.095 288.068L243.515 287.372C243.195 287.164 242.839 287 242.447 286.88C242.055 286.752 241.667 286.688 241.283 286.688C240.979 286.688 240.695 286.732 240.431 286.82C240.175 286.9 239.951 287.02 239.759 287.18C239.575 287.332 239.431 287.52 239.327 287.744C239.223 287.96 239.171 288.2 239.171 288.464V288.488C239.171 288.776 239.231 289.016 239.351 289.208C239.479 289.4 239.639 289.56 239.831 289.688C240.031 289.816 240.251 289.924 240.491 290.012C240.739 290.092 240.983 290.168 241.223 290.24C241.423 290.296 241.615 290.356 241.799 290.42C241.991 290.484 242.159 290.56 242.303 290.648C242.447 290.728 242.559 290.824 242.639 290.936C242.727 291.048 242.771 291.18 242.771 291.332V291.356C242.771 291.66 242.651 291.9 242.411 292.076C242.171 292.252 241.863 292.34 241.487 292.34C241.119 292.34 240.751 292.272 240.383 292.136C240.023 292 239.675 291.804 239.339 291.548L238.871 292.208C239.223 292.488 239.627 292.712 240.083 292.88C240.539 293.04 240.991 293.12 241.439 293.12C241.751 293.12 242.039 293.08 242.303 293C242.575 292.912 242.807 292.788 242.999 292.628C243.199 292.468 243.355 292.276 243.467 292.052C243.587 291.82 243.647 291.556 243.647 291.26ZM249.768 290.348C249.768 290.636 249.72 290.9 249.624 291.14C249.528 291.38 249.396 291.588 249.228 291.764C249.068 291.932 248.872 292.064 248.64 292.16C248.416 292.248 248.172 292.292 247.908 292.292C247.356 292.292 246.932 292.124 246.636 291.788C246.34 291.452 246.192 290.996 246.192 290.42V286.796H245.268V290.648C245.268 291.016 245.32 291.352 245.424 291.656C245.536 291.96 245.692 292.224 245.892 292.448C246.1 292.664 246.348 292.832 246.636 292.952C246.932 293.072 247.268 293.132 247.644 293.132C248.18 293.132 248.616 293.016 248.952 292.784C249.288 292.544 249.56 292.256 249.768 291.92V293H250.68V286.796H249.768V290.348ZM257.679 287.9C257.511 287.548 257.263 287.256 256.935 287.024C256.607 286.784 256.191 286.664 255.687 286.664C255.423 286.664 255.191 286.696 254.991 286.76C254.791 286.824 254.611 286.912 254.451 287.024C254.291 287.128 254.147 287.252 254.019 287.396C253.899 287.54 253.787 287.688 253.683 287.84V286.796H252.759V293H253.683V289.46C253.683 289.172 253.727 288.912 253.815 288.68C253.903 288.44 254.023 288.232 254.175 288.056C254.335 287.88 254.519 287.744 254.727 287.648C254.935 287.552 255.163 287.504 255.411 287.504C255.907 287.504 256.295 287.668 256.575 287.996C256.863 288.316 257.007 288.768 257.007 289.352V293H257.919V289.424C257.919 289.12 257.963 288.848 258.051 288.608C258.147 288.368 258.271 288.168 258.423 288.008C258.583 287.84 258.767 287.716 258.975 287.636C259.183 287.548 259.403 287.504 259.635 287.504C260.139 287.504 260.531 287.668 260.811 287.996C261.099 288.316 261.243 288.776 261.243 289.376V293H262.167V289.16C262.167 288.384 261.963 287.776 261.555 287.336C261.147 286.888 260.583 286.664 259.863 286.664C259.591 286.664 259.343 286.696 259.119 286.76C258.903 286.824 258.707 286.912 258.531 287.024C258.355 287.136 258.195 287.268 258.051 287.42C257.915 287.572 257.791 287.732 257.679 287.9ZM268.85 285.44V284.42H267.794V285.44H268.85ZM268.778 293V286.796H267.854V293H268.778ZM277.187 289.892C277.187 289.38 277.103 288.924 276.935 288.524C276.767 288.124 276.543 287.788 276.263 287.516C275.983 287.236 275.663 287.024 275.303 286.88C274.951 286.736 274.591 286.664 274.223 286.664C273.935 286.664 273.671 286.704 273.431 286.784C273.199 286.856 272.987 286.956 272.795 287.084C272.603 287.204 272.427 287.348 272.267 287.516C272.115 287.684 271.975 287.86 271.847 288.044V286.796H270.923V294.92H271.847V291.812C271.967 291.988 272.103 292.156 272.255 292.316C272.415 292.476 272.591 292.616 272.783 292.736C272.975 292.856 273.191 292.952 273.431 293.024C273.671 293.096 273.935 293.132 274.223 293.132C274.599 293.132 274.963 293.06 275.315 292.916C275.675 292.764 275.991 292.552 276.263 292.28C276.543 292 276.767 291.66 276.935 291.26C277.103 290.86 277.187 290.404 277.187 289.892ZM276.239 289.904C276.239 290.28 276.179 290.62 276.059 290.924C275.947 291.22 275.791 291.472 275.591 291.68C275.399 291.88 275.167 292.036 274.895 292.148C274.631 292.252 274.351 292.304 274.055 292.304C273.767 292.304 273.487 292.248 273.215 292.136C272.951 292.016 272.711 291.852 272.495 291.644C272.287 291.436 272.119 291.184 271.991 290.888C271.871 290.584 271.811 290.252 271.811 289.892C271.811 289.532 271.871 289.204 271.991 288.908C272.119 288.612 272.287 288.36 272.495 288.152C272.711 287.944 272.951 287.784 273.215 287.672C273.487 287.552 273.767 287.492 274.055 287.492C274.351 287.492 274.631 287.548 274.895 287.66C275.159 287.772 275.391 287.936 275.591 288.152C275.791 288.36 275.947 288.612 276.059 288.908C276.179 289.204 276.239 289.536 276.239 289.904ZM283.151 291.26V291.236C283.151 290.956 283.091 290.72 282.971 290.528C282.859 290.336 282.707 290.172 282.515 290.036C282.323 289.9 282.107 289.788 281.867 289.7C281.635 289.612 281.399 289.532 281.159 289.46C280.951 289.396 280.751 289.332 280.559 289.268C280.367 289.204 280.195 289.132 280.043 289.052C279.899 288.972 279.783 288.88 279.695 288.776C279.607 288.664 279.563 288.536 279.563 288.392V288.368C279.563 288.112 279.671 287.9 279.887 287.732C280.103 287.556 280.395 287.468 280.763 287.468C281.067 287.468 281.375 287.524 281.687 287.636C282.007 287.74 282.311 287.884 282.599 288.068L283.019 287.372C282.699 287.164 282.343 287 281.951 286.88C281.559 286.752 281.171 286.688 280.787 286.688C280.483 286.688 280.199 286.732 279.935 286.82C279.679 286.9 279.455 287.02 279.263 287.18C279.079 287.332 278.935 287.52 278.831 287.744C278.727 287.96 278.675 288.2 278.675 288.464V288.488C278.675 288.776 278.735 289.016 278.855 289.208C278.983 289.4 279.143 289.56 279.335 289.688C279.535 289.816 279.755 289.924 279.995 290.012C280.243 290.092 280.487 290.168 280.727 290.24C280.927 290.296 281.119 290.356 281.303 290.42C281.495 290.484 281.663 290.56 281.807 290.648C281.951 290.728 282.063 290.824 282.143 290.936C282.231 291.048 282.275 291.18 282.275 291.332V291.356C282.275 291.66 282.155 291.9 281.915 292.076C281.675 292.252 281.367 292.34 280.991 292.34C280.623 292.34 280.255 292.272 279.887 292.136C279.527 292 279.179 291.804 278.843 291.548L278.375 292.208C278.727 292.488 279.131 292.712 279.587 292.88C280.043 293.04 280.495 293.12 280.943 293.12C281.255 293.12 281.543 293.08 281.807 293C282.079 292.912 282.311 292.788 282.503 292.628C282.703 292.468 282.859 292.276 282.971 292.052C283.091 291.82 283.151 291.556 283.151 291.26ZM289.272 290.348C289.272 290.636 289.224 290.9 289.128 291.14C289.032 291.38 288.9 291.588 288.732 291.764C288.572 291.932 288.376 292.064 288.144 292.16C287.92 292.248 287.676 292.292 287.412 292.292C286.86 292.292 286.436 292.124 286.14 291.788C285.844 291.452 285.696 290.996 285.696 290.42V286.796H284.772V290.648C284.772 291.016 284.824 291.352 284.928 291.656C285.04 291.96 285.196 292.224 285.396 292.448C285.604 292.664 285.852 292.832 286.14 292.952C286.436 293.072 286.772 293.132 287.148 293.132C287.684 293.132 288.12 293.016 288.456 292.784C288.792 292.544 289.064 292.256 289.272 291.92V293H290.184V286.796H289.272V290.348ZM297.182 287.9C297.014 287.548 296.766 287.256 296.438 287.024C296.11 286.784 295.694 286.664 295.19 286.664C294.926 286.664 294.694 286.696 294.494 286.76C294.294 286.824 294.114 286.912 293.954 287.024C293.794 287.128 293.65 287.252 293.522 287.396C293.402 287.54 293.29 287.688 293.186 287.84V286.796H292.262V293H293.186V289.46C293.186 289.172 293.23 288.912 293.318 288.68C293.406 288.44 293.526 288.232 293.678 288.056C293.838 287.88 294.022 287.744 294.23 287.648C294.438 287.552 294.666 287.504 294.914 287.504C295.41 287.504 295.798 287.668 296.078 287.996C296.366 288.316 296.51 288.768 296.51 289.352V293H297.422V289.424C297.422 289.12 297.466 288.848 297.554 288.608C297.65 288.368 297.774 288.168 297.926 288.008C298.086 287.84 298.27 287.716 298.478 287.636C298.686 287.548 298.906 287.504 299.138 287.504C299.642 287.504 300.034 287.668 300.314 287.996C300.602 288.316 300.746 288.776 300.746 289.376V293H301.67V289.16C301.67 288.384 301.466 287.776 301.058 287.336C300.65 286.888 300.086 286.664 299.366 286.664C299.094 286.664 298.846 286.696 298.622 286.76C298.406 286.824 298.21 286.912 298.034 287.024C297.858 287.136 297.698 287.268 297.554 287.42C297.418 287.572 297.294 287.732 297.182 287.9ZM308.282 293V284.24H307.358V293H308.282ZM311.351 290.528C311.351 290.064 311.415 289.656 311.543 289.304C311.671 288.944 311.847 288.644 312.071 288.404C312.295 288.164 312.555 287.984 312.851 287.864C313.155 287.744 313.475 287.684 313.811 287.684H313.883V286.688C313.587 286.68 313.311 286.716 313.055 286.796C312.799 286.876 312.563 286.996 312.347 287.156C312.131 287.308 311.939 287.492 311.771 287.708C311.603 287.924 311.463 288.16 311.351 288.416V286.796H310.427V293H311.351V290.528ZM315.572 290.24H320.492C320.5 290.184 320.504 290.132 320.504 290.084C320.504 290.036 320.504 289.992 320.504 289.952C320.504 289.496 320.44 289.068 320.312 288.668C320.184 288.268 319.996 287.92 319.748 287.624C319.5 287.328 319.196 287.096 318.836 286.928C318.476 286.752 318.068 286.664 317.612 286.664C317.18 286.664 316.78 286.748 316.412 286.916C316.052 287.084 315.74 287.316 315.476 287.612C315.212 287.9 315.004 288.244 314.852 288.644C314.708 289.036 314.636 289.456 314.636 289.904C314.636 290.384 314.716 290.824 314.876 291.224C315.044 291.624 315.268 291.968 315.548 292.256C315.828 292.536 316.156 292.756 316.532 292.916C316.908 293.068 317.308 293.144 317.732 293.144C318.324 293.144 318.82 293.04 319.22 292.832C319.62 292.616 319.976 292.332 320.288 291.98L319.712 291.464C319.456 291.728 319.172 291.94 318.86 292.1C318.556 292.26 318.188 292.34 317.756 292.34C317.484 292.34 317.224 292.296 316.976 292.208C316.728 292.112 316.504 291.976 316.304 291.8C316.104 291.616 315.94 291.396 315.812 291.14C315.684 290.876 315.604 290.576 315.572 290.24ZM315.572 289.556C315.604 289.252 315.676 288.972 315.788 288.716C315.9 288.46 316.044 288.24 316.22 288.056C316.396 287.864 316.6 287.716 316.832 287.612C317.064 287.5 317.316 287.444 317.588 287.444C317.9 287.444 318.172 287.504 318.404 287.624C318.644 287.736 318.844 287.888 319.004 288.08C319.172 288.272 319.3 288.496 319.388 288.752C319.484 289.008 319.544 289.276 319.568 289.556H315.572ZM327.042 287.9C326.874 287.548 326.626 287.256 326.298 287.024C325.97 286.784 325.554 286.664 325.05 286.664C324.786 286.664 324.554 286.696 324.354 286.76C324.154 286.824 323.974 286.912 323.814 287.024C323.654 287.128 323.51 287.252 323.382 287.396C323.262 287.54 323.15 287.688 323.046 287.84V286.796H322.122V293H323.046V289.46C323.046 289.172 323.09 288.912 323.178 288.68C323.266 288.44 323.386 288.232 323.538 288.056C323.698 287.88 323.882 287.744 324.09 287.648C324.298 287.552 324.526 287.504 324.774 287.504C325.27 287.504 325.658 287.668 325.938 287.996C326.226 288.316 326.37 288.768 326.37 289.352V293H327.282V289.424C327.282 289.12 327.326 288.848 327.414 288.608C327.51 288.368 327.634 288.168 327.786 288.008C327.946 287.84 328.13 287.716 328.338 287.636C328.546 287.548 328.766 287.504 328.998 287.504C329.502 287.504 329.894 287.668 330.174 287.996C330.462 288.316 330.606 288.776 330.606 289.376V293H331.53V289.16C331.53 288.384 331.326 287.776 330.918 287.336C330.51 286.888 329.946 286.664 329.226 286.664C328.954 286.664 328.706 286.696 328.482 286.76C328.266 286.824 328.07 286.912 327.894 287.024C327.718 287.136 327.558 287.268 327.414 287.42C327.278 287.572 327.154 287.732 327.042 287.9ZM168.354 323V314.24H167.43V323H168.354ZM171.507 323V314.24H170.583V323H171.507ZM174.659 323V314.24H173.735V323H174.659ZM177.355 320.24H182.275C182.283 320.184 182.287 320.132 182.287 320.084C182.287 320.036 182.287 319.992 182.287 319.952C182.287 319.496 182.223 319.068 182.095 318.668C181.967 318.268 181.779 317.92 181.531 317.624C181.283 317.328 180.979 317.096 180.619 316.928C180.259 316.752 179.851 316.664 179.395 316.664C178.963 316.664 178.563 316.748 178.195 316.916C177.835 317.084 177.523 317.316 177.259 317.612C176.995 317.9 176.787 318.244 176.635 318.644C176.491 319.036 176.419 319.456 176.419 319.904C176.419 320.384 176.499 320.824 176.659 321.224C176.827 321.624 177.051 321.968 177.331 322.256C177.611 322.536 177.939 322.756 178.315 322.916C178.691 323.068 179.091 323.144 179.515 323.144C180.107 323.144 180.603 323.04 181.003 322.832C181.403 322.616 181.759 322.332 182.071 321.98L181.495 321.464C181.239 321.728 180.955 321.94 180.643 322.1C180.339 322.26 179.971 322.34 179.539 322.34C179.267 322.34 179.007 322.296 178.759 322.208C178.511 322.112 178.287 321.976 178.087 321.8C177.887 321.616 177.723 321.396 177.595 321.14C177.467 320.876 177.387 320.576 177.355 320.24ZM177.355 319.556C177.387 319.252 177.459 318.972 177.571 318.716C177.683 318.46 177.827 318.24 178.003 318.056C178.179 317.864 178.383 317.716 178.615 317.612C178.847 317.5 179.099 317.444 179.371 317.444C179.683 317.444 179.955 317.504 180.187 317.624C180.427 317.736 180.627 317.888 180.787 318.08C180.955 318.272 181.083 318.496 181.171 318.752C181.267 319.008 181.327 319.276 181.351 319.556H177.355ZM184.829 320.528C184.829 320.064 184.893 319.656 185.021 319.304C185.149 318.944 185.325 318.644 185.549 318.404C185.773 318.164 186.033 317.984 186.329 317.864C186.633 317.744 186.953 317.684 187.289 317.684H187.361V316.688C187.065 316.68 186.789 316.716 186.533 316.796C186.277 316.876 186.041 316.996 185.825 317.156C185.609 317.308 185.417 317.492 185.249 317.708C185.081 317.924 184.941 318.16 184.829 318.416V316.796H183.905V323H184.829V320.528ZM190.028 316.82V316.316C190.028 315.436 190.388 314.996 191.108 314.996C191.268 314.996 191.416 315.012 191.552 315.044C191.688 315.068 191.84 315.104 192.008 315.152V314.348C191.856 314.292 191.7 314.252 191.54 314.228C191.388 314.204 191.204 314.192 190.988 314.192C190.388 314.192 189.924 314.368 189.596 314.72C189.276 315.072 189.116 315.588 189.116 316.268V316.808H188.264V317.612H189.116V323H190.04V317.612H191.996V316.82H190.028ZM198.961 323V314.24H198.037V317.984C197.917 317.808 197.777 317.64 197.617 317.48C197.465 317.32 197.293 317.18 197.101 317.06C196.909 316.94 196.693 316.844 196.453 316.772C196.213 316.7 195.949 316.664 195.661 316.664C195.285 316.664 194.921 316.74 194.569 316.892C194.217 317.036 193.901 317.248 193.621 317.528C193.341 317.8 193.117 318.136 192.949 318.536C192.781 318.936 192.697 319.392 192.697 319.904C192.697 320.416 192.781 320.872 192.949 321.272C193.117 321.672 193.341 322.012 193.621 322.292C193.901 322.564 194.217 322.772 194.569 322.916C194.921 323.06 195.285 323.132 195.661 323.132C195.949 323.132 196.209 323.096 196.441 323.024C196.681 322.952 196.897 322.852 197.089 322.724C197.281 322.596 197.453 322.448 197.605 322.28C197.765 322.112 197.909 321.936 198.037 321.752V323H198.961ZM198.073 319.892C198.073 320.252 198.009 320.584 197.881 320.888C197.761 321.184 197.593 321.436 197.377 321.644C197.169 321.852 196.929 322.016 196.657 322.136C196.393 322.248 196.117 322.304 195.829 322.304C195.533 322.304 195.253 322.248 194.989 322.136C194.725 322.024 194.493 321.864 194.293 321.656C194.093 321.44 193.933 321.184 193.813 320.888C193.701 320.592 193.645 320.26 193.645 319.892C193.645 319.516 193.701 319.18 193.813 318.884C193.933 318.58 194.089 318.328 194.281 318.128C194.481 317.92 194.713 317.764 194.977 317.66C195.241 317.548 195.525 317.492 195.829 317.492C196.117 317.492 196.393 317.552 196.657 317.672C196.929 317.784 197.169 317.944 197.377 318.152C197.593 318.36 197.761 318.612 197.881 318.908C198.009 319.204 198.073 319.532 198.073 319.892ZM206.93 323V314.24H206.006V317.984C205.886 317.808 205.746 317.64 205.586 317.48C205.434 317.32 205.262 317.18 205.07 317.06C204.878 316.94 204.662 316.844 204.422 316.772C204.182 316.7 203.918 316.664 203.63 316.664C203.254 316.664 202.89 316.74 202.538 316.892C202.186 317.036 201.87 317.248 201.59 317.528C201.31 317.8 201.086 318.136 200.918 318.536C200.75 318.936 200.666 319.392 200.666 319.904C200.666 320.416 200.75 320.872 200.918 321.272C201.086 321.672 201.31 322.012 201.59 322.292C201.87 322.564 202.186 322.772 202.538 322.916C202.89 323.06 203.254 323.132 203.63 323.132C203.918 323.132 204.178 323.096 204.41 323.024C204.65 322.952 204.866 322.852 205.058 322.724C205.25 322.596 205.422 322.448 205.574 322.28C205.734 322.112 205.878 321.936 206.006 321.752V323H206.93ZM206.042 319.892C206.042 320.252 205.978 320.584 205.85 320.888C205.73 321.184 205.562 321.436 205.346 321.644C205.138 321.852 204.898 322.016 204.626 322.136C204.362 322.248 204.086 322.304 203.798 322.304C203.502 322.304 203.222 322.248 202.958 322.136C202.694 322.024 202.462 321.864 202.262 321.656C202.062 321.44 201.902 321.184 201.782 320.888C201.67 320.592 201.614 320.26 201.614 319.892C201.614 319.516 201.67 319.18 201.782 318.884C201.902 318.58 202.058 318.328 202.25 318.128C202.45 317.92 202.682 317.764 202.946 317.66C203.21 317.548 203.494 317.492 203.798 317.492C204.086 317.492 204.362 317.552 204.626 317.672C204.898 317.784 205.138 317.944 205.346 318.152C205.562 318.36 205.73 318.612 205.85 318.908C205.978 319.204 206.042 319.532 206.042 319.892ZM210.075 315.44V314.42H209.019V315.44H210.075ZM209.079 316.796V323.348C209.079 323.636 209.011 323.844 208.875 323.972C208.747 324.108 208.579 324.176 208.371 324.176C208.307 324.176 208.231 324.172 208.143 324.164C208.063 324.164 207.987 324.156 207.915 324.14V324.896C208.019 324.92 208.111 324.936 208.191 324.944C208.279 324.952 208.379 324.956 208.491 324.956C208.963 324.956 209.331 324.828 209.595 324.572C209.867 324.316 210.003 323.912 210.003 323.36V316.796H209.079ZM213.407 316.82V316.316C213.407 315.436 213.767 314.996 214.487 314.996C214.647 314.996 214.795 315.012 214.931 315.044C215.067 315.068 215.219 315.104 215.387 315.152V314.348C215.235 314.292 215.079 314.252 214.919 314.228C214.767 314.204 214.583 314.192 214.367 314.192C213.767 314.192 213.303 314.368 212.975 314.72C212.655 315.072 212.495 315.588 212.495 316.268V316.808H211.643V317.612H212.495V323H213.419V317.612H215.375V316.82H213.407ZM219.049 321.944L216.961 316.796H215.941L218.629 323.048H219.445L222.145 316.796H221.149L219.049 321.944ZM224.856 316.82V316.316C224.856 315.436 225.216 314.996 225.936 314.996C226.096 314.996 226.244 315.012 226.38 315.044C226.516 315.068 226.668 315.104 226.836 315.152V314.348C226.684 314.292 226.528 314.252 226.368 314.228C226.216 314.204 226.032 314.192 225.816 314.192C225.216 314.192 224.752 314.368 224.424 314.72C224.104 315.072 223.944 315.588 223.944 316.268V316.808H223.092V317.612H223.944V323H224.868V317.612H226.824V316.82H224.856ZM229.263 316.82V316.316C229.263 315.436 229.623 314.996 230.343 314.996C230.503 314.996 230.651 315.012 230.787 315.044C230.923 315.068 231.075 315.104 231.243 315.152V314.348C231.091 314.292 230.935 314.252 230.775 314.228C230.623 314.204 230.439 314.192 230.223 314.192C229.623 314.192 229.159 314.368 228.831 314.72C228.511 315.072 228.351 315.588 228.351 316.268V316.808H227.499V317.612H228.351V323H229.275V317.612H231.231V316.82H229.263ZM237.015 323V314.24H236.091V323H237.015ZM245.243 319.892C245.243 319.452 245.163 319.036 245.003 318.644C244.843 318.252 244.619 317.912 244.331 317.624C244.043 317.328 243.699 317.096 243.299 316.928C242.907 316.752 242.479 316.664 242.015 316.664C241.543 316.664 241.107 316.752 240.707 316.928C240.315 317.096 239.975 317.328 239.687 317.624C239.399 317.92 239.175 318.268 239.015 318.668C238.855 319.06 238.775 319.476 238.775 319.916C238.775 320.356 238.855 320.772 239.015 321.164C239.175 321.556 239.399 321.9 239.687 322.196C239.975 322.484 240.315 322.716 240.707 322.892C241.099 323.06 241.527 323.144 241.991 323.144C242.455 323.144 242.887 323.06 243.287 322.892C243.687 322.716 244.031 322.48 244.319 322.184C244.607 321.888 244.831 321.544 244.991 321.152C245.159 320.752 245.243 320.332 245.243 319.892ZM244.295 319.916C244.295 320.252 244.239 320.568 244.127 320.864C244.015 321.152 243.859 321.404 243.659 321.62C243.459 321.836 243.219 322.008 242.939 322.136C242.659 322.256 242.351 322.316 242.015 322.316C241.687 322.316 241.383 322.252 241.103 322.124C240.823 321.996 240.579 321.824 240.371 321.608C240.171 321.392 240.011 321.136 239.891 320.84C239.779 320.544 239.723 320.228 239.723 319.892C239.723 319.556 239.779 319.244 239.891 318.956C240.003 318.66 240.155 318.404 240.347 318.188C240.547 317.964 240.787 317.792 241.067 317.672C241.347 317.544 241.655 317.48 241.991 317.48C242.319 317.48 242.623 317.544 242.903 317.672C243.183 317.8 243.427 317.976 243.635 318.2C243.843 318.416 244.003 318.672 244.115 318.968C244.235 319.264 244.295 319.58 244.295 319.916ZM247.841 320.528C247.841 320.064 247.905 319.656 248.033 319.304C248.161 318.944 248.337 318.644 248.561 318.404C248.785 318.164 249.045 317.984 249.341 317.864C249.645 317.744 249.965 317.684 250.301 317.684H250.373V316.688C250.077 316.68 249.801 316.716 249.545 316.796C249.289 316.876 249.053 316.996 248.837 317.156C248.621 317.308 248.429 317.492 248.261 317.708C248.093 317.924 247.953 318.16 247.841 318.416V316.796H246.917V323H247.841V320.528ZM252.063 320.24H256.983C256.991 320.184 256.995 320.132 256.995 320.084C256.995 320.036 256.995 319.992 256.995 319.952C256.995 319.496 256.931 319.068 256.803 318.668C256.675 318.268 256.487 317.92 256.239 317.624C255.991 317.328 255.687 317.096 255.327 316.928C254.967 316.752 254.559 316.664 254.103 316.664C253.671 316.664 253.271 316.748 252.903 316.916C252.543 317.084 252.231 317.316 251.967 317.612C251.703 317.9 251.495 318.244 251.343 318.644C251.199 319.036 251.127 319.456 251.127 319.904C251.127 320.384 251.207 320.824 251.367 321.224C251.535 321.624 251.759 321.968 252.039 322.256C252.319 322.536 252.647 322.756 253.023 322.916C253.399 323.068 253.799 323.144 254.223 323.144C254.815 323.144 255.311 323.04 255.711 322.832C256.111 322.616 256.467 322.332 256.779 321.98L256.203 321.464C255.947 321.728 255.663 321.94 255.351 322.1C255.047 322.26 254.679 322.34 254.247 322.34C253.975 322.34 253.715 322.296 253.467 322.208C253.219 322.112 252.995 321.976 252.795 321.8C252.595 321.616 252.431 321.396 252.303 321.14C252.175 320.876 252.095 320.576 252.063 320.24ZM252.063 319.556C252.095 319.252 252.167 318.972 252.279 318.716C252.391 318.46 252.535 318.24 252.711 318.056C252.887 317.864 253.091 317.716 253.323 317.612C253.555 317.5 253.807 317.444 254.079 317.444C254.391 317.444 254.663 317.504 254.895 317.624C255.135 317.736 255.335 317.888 255.495 318.08C255.663 318.272 255.791 318.496 255.879 318.752C255.975 319.008 256.035 319.276 256.059 319.556H252.063ZM263.532 317.9C263.364 317.548 263.116 317.256 262.788 317.024C262.46 316.784 262.044 316.664 261.54 316.664C261.276 316.664 261.044 316.696 260.844 316.76C260.644 316.824 260.464 316.912 260.304 317.024C260.144 317.128 260 317.252 259.872 317.396C259.752 317.54 259.64 317.688 259.536 317.84V316.796H258.612V323H259.536V319.46C259.536 319.172 259.58 318.912 259.668 318.68C259.756 318.44 259.876 318.232 260.028 318.056C260.188 317.88 260.372 317.744 260.58 317.648C260.788 317.552 261.016 317.504 261.264 317.504C261.76 317.504 262.148 317.668 262.428 317.996C262.716 318.316 262.86 318.768 262.86 319.352V323H263.772V319.424C263.772 319.12 263.816 318.848 263.904 318.608C264 318.368 264.124 318.168 264.276 318.008C264.436 317.84 264.62 317.716 264.828 317.636C265.036 317.548 265.256 317.504 265.488 317.504C265.992 317.504 266.384 317.668 266.664 317.996C266.952 318.316 267.096 318.776 267.096 319.376V323H268.02V319.16C268.02 318.384 267.816 317.776 267.408 317.336C267 316.888 266.436 316.664 265.716 316.664C265.444 316.664 265.196 316.696 264.972 316.76C264.756 316.824 264.56 316.912 264.384 317.024C264.208 317.136 264.048 317.268 263.904 317.42C263.768 317.572 263.644 317.732 263.532 317.9ZM274.632 323V314.24H273.708V323H274.632ZM277.772 323V321.74H276.668V323H277.772Z" fill="white"/>
</g>
<defs>
<linearGradient id="paint0_linear_277_1541" x1="254.823" y1="407.117" x2="293.016" y2="444.945" gradientUnits="userSpaceOnUse">
<stop stop-color="#B2F2F6"/>
<stop offset="0.8963" stop-color="#0091D6"/>
</linearGradient>
<linearGradient id="paint1_linear_277_1541" x1="302.266" y1="473.098" x2="340.459" y2="510.926" gradientUnits="userSpaceOnUse">
<stop offset="0.2046" stop-color="#ED6323"/>
<stop offset="0.8634" stop-color="#F1961C"/>
</linearGradient>
<linearGradient id="paint2_linear_277_1541" x1="380.374" y1="285.32" x2="418.566" y2="323.148" gradientUnits="userSpaceOnUse">
<stop stop-color="#B2F2F6"/>
<stop offset="0.8963" stop-color="#0091D6"/>
</linearGradient>
<linearGradient id="paint3_linear_277_1541" x1="369.656" y1="482.598" x2="407.849" y2="520.426" gradientUnits="userSpaceOnUse">
<stop offset="0.1109" stop-color="#FAED7D"/>
<stop offset="0.8378" stop-color="#F7D00E"/>
</linearGradient>
<linearGradient id="paint4_linear_277_1541" x1="298.542" y1="439.367" x2="336.734" y2="477.195" gradientUnits="userSpaceOnUse">
<stop offset="0.1037" stop-color="#3098CE"/>
<stop offset="1" stop-color="#3200AA"/>
</linearGradient>
<linearGradient id="paint5_linear_277_1541" x1="381.717" y1="343.571" x2="408.847" y2="370.442" gradientUnits="userSpaceOnUse">
<stop offset="0.2046" stop-color="#ED6323"/>
<stop offset="0.8634" stop-color="#F1961C"/>
</linearGradient>
<linearGradient id="paint6_linear_277_1541" x1="369.819" y1="369.834" x2="408.011" y2="407.662" gradientUnits="userSpaceOnUse">
<stop offset="0.1109" stop-color="#FAED7D"/>
<stop offset="0.8378" stop-color="#F7D00E"/>
</linearGradient>
<linearGradient id="paint7_linear_277_1541" x1="408.219" y1="369.961" x2="446.411" y2="407.789" gradientUnits="userSpaceOnUse">
<stop offset="0.1037" stop-color="#3098CE"/>
<stop offset="1" stop-color="#3200AA"/>
</linearGradient>
<linearGradient id="paint8_linear_277_1541" x1="413.542" y1="451.634" x2="451.976" y2="414.06" gradientUnits="userSpaceOnUse">
<stop stop-color="#B2F2F6"/>
<stop offset="0.8963" stop-color="#0091D6"/>
</linearGradient>
<linearGradient id="paint9_linear_277_1541" x1="331.181" y1="444.934" x2="369.373" y2="482.762" gradientUnits="userSpaceOnUse">
<stop stop-color="#9A00E9"/>
<stop offset="0.057978" stop-color="#8E00DC"/>
<stop offset="0.2411" stop-color="#6C01B9"/>
<stop offset="0.427" stop-color="#51019E"/>
<stop offset="0.6144" stop-color="#3E028B"/>
<stop offset="0.8041" stop-color="#33027F"/>
<stop offset="1" stop-color="#2F027B"/>
</linearGradient>
<linearGradient id="paint10_linear_277_1541" x1="407.978" y1="445.188" x2="446.17" y2="483.016" gradientUnits="userSpaceOnUse">
<stop stop-color="#9A00E9"/>
<stop offset="0.057978" stop-color="#8E00DC"/>
<stop offset="0.2411" stop-color="#6C01B9"/>
<stop offset="0.427" stop-color="#51019E"/>
<stop offset="0.6144" stop-color="#3E028B"/>
<stop offset="0.8041" stop-color="#33027F"/>
<stop offset="1" stop-color="#2F027B"/>
</linearGradient>
<linearGradient id="paint11_linear_277_1541" x1="409.383" y1="294.422" x2="447.575" y2="332.25" gradientUnits="userSpaceOnUse">
<stop offset="0.1109" stop-color="#FAED7D"/>
<stop offset="0.8378" stop-color="#F0B018"/>
</linearGradient>
<linearGradient id="paint12_linear_277_1541" x1="196.717" y1="52.9227" x2="178.631" y2="35.0084" gradientUnits="userSpaceOnUse">
<stop stop-color="#B2F2F6"/>
<stop offset="0.8963" stop-color="#0091D6"/>
</linearGradient>
<linearGradient id="paint13_linear_277_1541" x1="133.588" y1="113.572" x2="98.0665" y2="78.3898" gradientUnits="userSpaceOnUse">
<stop offset="0.2046" stop-color="#ED6323"/>
<stop offset="0.8634" stop-color="#F1961C"/>
</linearGradient>
<linearGradient id="paint14_linear_277_1541" x1="26.8803" y1="78.5629" x2="-8.64073" y2="43.3808" gradientUnits="userSpaceOnUse">
<stop offset="0.2046" stop-color="#ED6323"/>
<stop offset="0.8634" stop-color="#F1961C"/>
</linearGradient>
<linearGradient id="paint15_linear_277_1541" x1="142.334" y1="69.8718" x2="106.813" y2="34.6899" gradientUnits="userSpaceOnUse">
<stop stop-color="#9A00E9"/>
<stop offset="0.057978" stop-color="#8E00DC"/>
<stop offset="0.2411" stop-color="#6C01B9"/>
<stop offset="0.427" stop-color="#51019E"/>
<stop offset="0.6144" stop-color="#3E028B"/>
<stop offset="0.8041" stop-color="#33027F"/>
<stop offset="1" stop-color="#2F027B"/>
</linearGradient>
<linearGradient id="paint16_linear_277_1541" x1="142.445" y1="34.8899" x2="106.924" y2="-0.292884" gradientUnits="userSpaceOnUse">
<stop offset="0.1109" stop-color="#FAED7D"/>
<stop offset="0.8378" stop-color="#F7D00E"/>
</linearGradient>
<linearGradient id="paint17_linear_277_1541" x1="70.9107" y1="104.737" x2="35.3897" y2="69.554" gradientUnits="userSpaceOnUse">
<stop offset="0.1109" stop-color="#FAED7D"/>
<stop offset="0.8378" stop-color="#F7D00E"/>
</linearGradient>
<linearGradient id="paint18_linear_277_1541" x1="89.5117" y1="16.1366" x2="71.3101" y2="33.9308" gradientUnits="userSpaceOnUse">
<stop offset="0.1109" stop-color="#FAED7D"/>
<stop offset="0.8378" stop-color="#F7D00E"/>
</linearGradient>
<linearGradient id="paint19_linear_277_1541" x1="53.4288" y1="33.9258" x2="53.4288" y2="68.888" gradientUnits="userSpaceOnUse">
<stop stop-color="#E61D35"/>
<stop offset="1" stop-color="#ED6323"/>
</linearGradient>
<linearGradient id="paint20_linear_277_1541" x1="71.0178" y1="34.6535" x2="35.4966" y2="-0.529187" gradientUnits="userSpaceOnUse">
<stop stop-color="#B2F2F6"/>
<stop offset="0.8963" stop-color="#0091D6"/>
</linearGradient>
<linearGradient id="paint21_linear_277_1541" x1="137.052" y1="144.945" x2="101.531" y2="109.763" gradientUnits="userSpaceOnUse">
<stop offset="0.1037" stop-color="#3098CE"/>
<stop offset="1" stop-color="#3200AA"/>
</linearGradient>
<linearGradient id="paint22_linear_277_1541" x1="40.3637" y1="29.4287" x2="4.84253" y2="-5.75408" gradientUnits="userSpaceOnUse">
<stop offset="0.1109" stop-color="#FAED7D"/>
<stop offset="0.8378" stop-color="#F7D00E"/>
</linearGradient>
<linearGradient id="paint23_linear_277_1541" x1="213.589" y1="35.2194" x2="178.068" y2="0.0372984" gradientUnits="userSpaceOnUse">
<stop offset="0.1109" stop-color="#FAED7D"/>
<stop offset="0.8378" stop-color="#F7D00E"/>
</linearGradient>
<linearGradient id="paint24_linear_277_1541" x1="70.7592" y1="209.615" x2="35.2382" y2="174.433" gradientUnits="userSpaceOnUse">
<stop offset="0.1109" stop-color="#FAED7D"/>
<stop offset="0.8378" stop-color="#F7D00E"/>
</linearGradient>
<linearGradient id="paint25_linear_277_1541" x1="35.0452" y1="209.497" x2="-0.475835" y2="174.314" gradientUnits="userSpaceOnUse">
<stop offset="0.1037" stop-color="#3098CE"/>
<stop offset="1" stop-color="#3200AA"/>
</linearGradient>
<linearGradient id="paint26_linear_277_1541" x1="30.1751" y1="133.304" x2="-5.57139" y2="168.25" gradientUnits="userSpaceOnUse">
<stop stop-color="#B2F2F6"/>
<stop offset="0.8963" stop-color="#0091D6"/>
</linearGradient>
<linearGradient id="paint27_linear_277_1541" x1="89.2316" y1="104.104" x2="89.2316" y2="139.192" gradientUnits="userSpaceOnUse">
<stop stop-color="#E61D35"/>
<stop offset="1" stop-color="#ED6323"/>
</linearGradient>
<linearGradient id="paint28_linear_277_1541" x1="124.756" y1="34.3069" x2="124.756" y2="69.3957" gradientUnits="userSpaceOnUse">
<stop stop-color="#E61D35"/>
<stop offset="1" stop-color="#ED6323"/>
</linearGradient>
<linearGradient id="paint29_linear_277_1541" x1="17.7523" y1="103.85" x2="17.7523" y2="138.939" gradientUnits="userSpaceOnUse">
<stop stop-color="#E61D35"/>
<stop offset="1" stop-color="#ED6323"/>
</linearGradient>
<clipPath id="clip0_277_1541">
<path d="M0 0H434C439.657 0 442.485 0 444.243 1.75736C446 3.51472 446 6.34315 446 12V509C446 514.657 446 517.485 444.243 519.243C442.485 521 439.657 521 434 521H0V0Z" fill="white"/>
</clipPath>
</defs>
</svg>
