<svg width="24" height="24" viewBox="0 0 24 24" fill="none" xmlns="http://www.w3.org/2000/svg">
<path d="M6.70001 18H4.15002C2.72002 18 2 17.28 2 15.85V4.15004C2 2.72004 2.72002 2.00002 4.15002 2.00002H8.45001C9.88001 2.00002 10.6 2.72004 10.6 4.15004V6.00002" stroke="#0091D6" stroke-width="1.5" stroke-miterlimit="10" stroke-linecap="round" stroke-linejoin="round"/>
<path d="M13.3999 6.00002V4.15004C13.3999 2.72004 14.1199 2.00002 15.5499 2.00002H19.8499C21.2799 2.00002 21.9999 2.72004 21.9999 4.15004V15.85C21.9999 17.28 21.2799 18 19.8499 18H17.3699" stroke="#0091D6" stroke-width="1.5" stroke-miterlimit="10" stroke-linecap="round" stroke-linejoin="round"/>
<path d="M17.3702 8.42V19.58C17.3702 21.19 16.5702 22 14.9602 22H9.12018C7.51018 22 6.7002 21.19 6.7002 19.58V8.42C6.7002 6.81 7.51018 6.00002 9.12018 6.00002H14.9602C16.5702 6.00002 17.3702 6.81 17.3702 8.42Z" stroke="#2F439B" stroke-width="1.5" stroke-miterlimit="10" stroke-linecap="round" stroke-linejoin="round"/>
<path d="M10 11H14" stroke="#0091D6" stroke-width="1.5" stroke-miterlimit="10" stroke-linecap="round" stroke-linejoin="round"/>
<path d="M10 14H14" stroke="#0091D6" stroke-width="1.5" stroke-miterlimit="10" stroke-linecap="round" stroke-linejoin="round"/>
<path d="M12 22V19" stroke="#2F439B" stroke-width="1.5" stroke-miterlimit="10" stroke-linecap="round" stroke-linejoin="round"/>
</svg>
