<svg width="79" height="30" viewBox="0 0 79 30" fill="none" xmlns="http://www.w3.org/2000/svg">
<g clip-path="url(#clip0_427_1062)">
<path d="M24.7445 20.2665L25.7024 18.1218C26.7512 18.8658 28.1191 19.2596 29.4874 19.2596C30.4908 19.2596 31.1292 18.8878 31.1292 18.3189C31.1063 16.7431 25.0865 17.9686 25.0408 14.007C25.0179 11.9936 26.8879 10.4398 29.5332 10.4398C31.1063 10.4398 32.68 10.8119 33.7971 11.6656L32.902 13.856C31.8741 13.2229 30.6046 12.7815 29.3962 12.7815C28.5754 12.7815 28.0279 13.1533 28.0279 13.6351C28.0508 15.189 34.1166 14.3353 34.185 18.1218C34.185 20.1791 32.3604 21.6236 29.7608 21.6236C27.8457 21.6236 26.0899 21.1859 24.7441 20.2665H24.7445ZM62.8859 17.3452C62.6441 17.7567 62.2924 18.0993 61.8668 18.3376C61.4412 18.576 60.9571 18.7016 60.4642 18.7017C58.9278 18.7017 57.6824 17.5062 57.6824 16.0317C57.6824 14.5571 58.9278 13.3616 60.4642 13.3616C60.9571 13.3617 61.4412 13.4873 61.8668 13.7257C62.2924 13.9641 62.6441 14.3066 62.8859 14.7181L65.5489 13.3021C64.5514 11.5945 62.6488 10.4398 60.4642 10.4398C57.2465 10.4398 54.638 12.9431 54.638 16.0317C54.638 19.1199 57.2465 21.6236 60.4642 21.6236C62.6488 21.6236 64.5514 20.4688 65.5489 18.7612L62.8859 17.3452ZM35.913 21.4046H39.2422V5.78485H35.9134L35.913 21.4046ZM67.2302 5.78485V21.4046H70.5594V16.7249L74.5044 21.4046H78.7598L73.7431 15.8453L78.3948 10.6578H74.3219L70.5594 14.9706V5.78485H67.2302ZM49.499 10.6584V11.9281C48.9519 11.0525 47.6065 10.4398 46.1927 10.4398C43.2739 10.4398 40.9709 12.913 40.9709 16.0207C40.9709 19.1284 43.2739 21.6236 46.1927 21.6236C47.6065 21.6236 48.9519 21.0108 49.499 20.1352V21.4046H52.8282V10.6584H49.499ZM49.499 17.3668C49.0202 18.1328 48.0169 18.7014 46.8998 18.7014C45.363 18.7014 44.1177 17.5062 44.1177 16.0317C44.1177 14.5571 45.363 13.3616 46.8998 13.3616C48.0169 13.3616 49.0202 13.9525 49.499 14.74V17.3668Z" fill="black"/>
<path d="M7.16296 5.43976C6.08407 5.43976 5.20958 6.27933 5.20958 7.31469C5.20932 7.56066 5.25964 7.80428 5.35767 8.03162C5.4557 8.25896 5.59951 8.46559 5.7809 8.63969C5.96228 8.81379 6.17769 8.95197 6.41483 9.04633C6.65196 9.14068 6.90618 9.18938 7.16296 9.18962H9.11666V7.31469C9.11709 6.8179 8.91151 6.34128 8.54513 5.98967C8.17875 5.63806 7.68157 5.44026 7.16296 5.43976ZM7.16296 10.4396H1.95362C0.874735 10.4396 0.000244141 11.2791 0.000244141 12.3148C0.000244141 13.3502 0.874735 14.1898 1.95362 14.1898H7.16328C8.24184 14.1898 9.11666 13.3502 9.11666 12.3148C9.11666 11.2791 8.24184 10.4396 7.16296 10.4396Z" fill="#36C5F0"/>
<path d="M19.5354 12.3148C19.5354 11.2791 18.6605 10.4396 17.5817 10.4396C16.5028 10.4396 15.6283 11.2791 15.6283 12.3148V14.1898H17.5817C18.1003 14.1893 18.5975 13.9914 18.9638 13.6398C19.3302 13.2882 19.5358 12.8116 19.5354 12.3148ZM14.326 12.3148V7.31469C14.3265 6.8179 14.1209 6.34128 13.7545 5.98967C13.3881 5.63806 12.8909 5.44026 12.3723 5.43976C11.2934 5.43976 10.4189 6.27933 10.4189 7.31469V12.3145C10.4189 13.3505 11.2934 14.1901 12.3723 14.1901C12.8909 14.1896 13.3881 13.9918 13.7545 13.6402C14.1209 13.2885 14.3265 12.8119 14.326 12.3151" fill="#2EB67D"/>
<path d="M12.3723 24.1898C12.8909 24.1893 13.3881 23.9914 13.7545 23.6398C14.1209 23.2882 14.3265 22.8116 14.326 22.3148C14.3265 21.818 14.1209 21.3414 13.7545 20.9898C13.3881 20.6382 12.8909 20.4404 12.3723 20.4399H10.4189V22.3148C10.4189 23.3502 11.2934 24.1898 12.3723 24.1898ZM12.3723 19.1899H17.582C18.6605 19.1899 19.5354 18.3504 19.5354 17.3147C19.5358 16.8179 19.3302 16.3413 18.9638 15.9897C18.5975 15.6381 18.1003 15.4403 17.5817 15.4398H12.3723C11.2934 15.4398 10.4189 16.2793 10.4189 17.3147C10.4187 17.5607 10.469 17.8043 10.567 18.0316C10.6651 18.259 10.8089 18.4656 10.9903 18.6397C11.1717 18.8138 11.3871 18.952 11.6242 19.0463C11.8613 19.1407 12.1155 19.1894 12.3723 19.1896" fill="#ECB22E"/>
<path d="M9.85627e-07 17.3147C-0.000256824 17.5607 0.0500643 17.8043 0.148091 18.0316C0.246118 18.259 0.389931 18.4656 0.571319 18.6397C0.752707 18.8138 0.968117 18.952 1.20525 19.0463C1.44239 19.1407 1.6966 19.1894 1.95338 19.1896C2.472 19.1891 2.96917 18.9913 3.33555 18.6397C3.70193 18.2881 3.90752 17.8115 3.90708 17.3147V15.4398H1.95338C0.874491 15.4398 9.85627e-07 16.2793 9.85627e-07 17.3147ZM5.20933 17.3147V22.3145C5.20933 23.3502 6.08383 24.1898 7.16271 24.1898C7.68133 24.1893 8.17851 23.9914 8.54489 23.6398C8.91127 23.2882 9.11685 22.8116 9.11642 22.3148V17.3147C9.11667 17.0687 9.06634 16.8251 8.9683 16.5977C8.87025 16.3703 8.72641 16.1637 8.54498 15.9896C8.36356 15.8155 8.14811 15.6773 7.91094 15.583C7.67377 15.4886 7.41952 15.44 7.16271 15.4398C6.08383 15.4398 5.20933 16.2793 5.20933 17.3147Z" fill="#E01E5A"/>
</g>
<defs>
<clipPath id="clip0_427_1062">
<rect width="78.9474" height="30" fill="white"/>
</clipPath>
</defs>
</svg>
