<svg width="79" height="28" viewBox="0 0 79 28" fill="none" xmlns="http://www.w3.org/2000/svg">
<path d="M11.8831 0.924438C5.3429 0.924438 0.0407715 6.8008 0.0407715 14.0495C0.0407715 21.2985 5.3429 27.1744 11.8831 27.1744C18.424 27.1744 23.7256 21.2985 23.7256 14.0495C23.7256 6.80127 18.424 0.925065 11.883 0.925065L11.8831 0.924438ZM17.3139 19.8546C17.1018 20.2401 16.6464 20.3624 16.2986 20.1257C13.5181 18.2434 10.0179 17.817 5.89568 18.8609C5.49845 18.9612 5.1025 18.6853 5.01199 18.2449C4.92106 17.8045 5.16896 17.3657 5.56718 17.2654C10.0782 16.1231 13.9477 16.6149 17.0693 18.7292C17.4171 18.9659 17.5274 19.469 17.3139 19.8546ZM18.7634 16.2808C18.4961 16.7622 17.9276 16.9143 17.4935 16.618C14.3103 14.4495 9.45801 13.8215 5.69289 15.0882C5.2046 15.2517 4.68886 14.9467 4.54066 14.4064C4.39359 13.8652 4.66893 13.2947 5.15637 13.1301C9.45716 11.6838 14.8038 12.3844 18.4593 14.8741C18.8935 15.1703 19.0307 15.8004 18.7634 16.2809V16.2808ZM18.8878 12.5593C15.0711 10.0467 8.77399 9.81571 5.12993 11.0415C4.54476 11.2382 3.92594 10.8721 3.74861 10.2235C3.57128 9.57465 3.90134 8.88926 4.48693 8.69209C8.67005 7.28464 15.624 7.55657 20.0183 10.4478C20.5457 10.794 20.7183 11.5474 20.4058 12.13C20.0946 12.7134 19.413 12.9057 18.8884 12.5593H18.8878ZM32.2598 13.0408C30.215 12.5004 29.8515 12.1211 29.8515 11.3241C29.8515 10.5712 30.4907 10.0644 31.4424 10.0644C32.3645 10.0644 33.278 10.4492 34.2368 11.2413C34.265 11.2653 34.3018 11.2749 34.3372 11.2686C34.3739 11.2627 34.405 11.2409 34.4263 11.2081L35.4246 9.64832C35.4656 9.58406 35.4543 9.4955 35.3992 9.44645C34.258 8.43192 32.9739 7.93868 31.4721 7.93868C29.2647 7.93868 27.7219 9.40711 27.7219 11.5081C27.7219 13.7611 29.0526 14.5589 31.3519 15.1747C33.3077 15.6742 33.6386 16.0927 33.6386 16.8406C33.6386 17.6697 32.9711 18.1854 31.8964 18.1854C30.7029 18.1854 29.7285 17.7387 28.6396 16.6948C28.6128 16.6682 28.576 16.6572 28.5421 16.6588C28.5053 16.6619 28.4728 16.6807 28.4501 16.7105L27.3302 18.1869C27.2835 18.2496 27.2892 18.3405 27.3429 18.3938C28.6099 19.6477 30.1683 20.3091 31.8511 20.3091C34.2297 20.3091 35.7668 18.8687 35.7668 16.6384C35.7711 14.7565 34.7543 13.7143 32.264 13.0428L32.2598 13.0408ZM41.149 10.8058C40.1181 10.8058 39.2725 11.2559 38.5739 12.1783V11.1401C38.5739 11.0581 38.5145 10.9914 38.441 10.9914H36.6097C36.5361 10.9914 36.4767 11.0581 36.4767 11.1401V22.6758C36.4767 22.7573 36.5361 22.8246 36.6097 22.8246H38.441C38.5145 22.8246 38.5739 22.7573 38.5739 22.6758V19.0349C39.2725 19.9016 40.1181 20.3263 41.149 20.3263C43.0652 20.3263 45.0053 18.6916 45.0053 15.5665C45.0082 12.4408 43.068 10.8056 41.1504 10.8056L41.149 10.8058ZM42.8757 15.5665C42.8757 17.1572 41.9918 18.2684 40.7248 18.2684C39.4733 18.2684 38.5286 17.107 38.5286 15.5665C38.5286 14.0258 39.4733 12.8648 40.7248 12.8648C41.9706 12.8646 42.8757 14.0006 42.8757 15.5664V15.5665ZM49.976 10.8058C47.5083 10.8058 45.5752 12.9116 45.5752 15.6005C45.5752 18.2606 47.4956 20.3436 49.9463 20.3436C52.4224 20.3436 54.3612 18.2449 54.3612 15.5665C54.3612 12.8972 52.4352 10.8061 49.976 10.8061V10.8058ZM49.976 18.2841C48.6637 18.2841 47.6738 17.1149 47.6738 15.5657C47.6738 14.0096 48.6297 12.8803 49.9463 12.8803C51.2671 12.8803 52.2626 14.049 52.2626 15.5998C52.2626 17.1556 51.301 18.2841 49.976 18.2841ZM59.6302 10.9914H57.6151V8.70839C57.6151 8.62658 57.5557 8.55981 57.4822 8.55981H55.6509C55.5773 8.55981 55.5165 8.62658 55.5165 8.70839V10.9914H54.6369C54.5634 10.9914 54.504 11.0581 54.504 11.1401V12.8841C54.504 12.9659 54.5634 13.0328 54.6369 13.0328H55.5165V17.5459C55.5165 19.3687 56.3353 20.2934 57.9517 20.2934C58.6078 20.2934 59.1523 20.143 59.6656 19.8201C59.708 19.795 59.7335 19.7449 59.7335 19.6916V18.0302C59.7335 17.98 59.7094 17.9315 59.6698 17.9048C59.6302 17.8766 59.5807 17.875 59.5397 17.8986C59.1876 18.0945 58.8468 18.1854 58.465 18.1854C57.8781 18.1854 57.6151 17.8891 57.6151 17.2277V13.0336H59.6302C59.7038 13.0336 59.7632 12.9668 59.7632 12.8848V11.141C59.766 11.0591 59.7066 10.9923 59.6316 10.9923L59.6302 10.9914ZM66.65 11.0003V10.7199C66.65 9.89501 66.9356 9.52716 67.5748 9.52716C67.9566 9.52716 68.2635 9.61117 68.6071 9.73812C68.6495 9.75286 68.6934 9.74549 68.7273 9.71743C68.7627 9.68938 68.7825 9.6444 68.7825 9.59675V7.8868C68.7825 7.82144 68.7457 7.76361 68.6877 7.74433C68.3257 7.62475 67.8619 7.50202 67.1661 7.50202C65.4762 7.50202 64.5811 8.55746 64.5811 10.5531V10.9826H63.7015C63.628 10.9826 63.5672 11.0493 63.5672 11.1312V12.8841C63.5672 12.9659 63.628 13.0328 63.7015 13.0328H64.5811V19.9925C64.5811 20.0756 64.6419 20.1414 64.7154 20.1414H66.5453C66.6203 20.1414 66.6796 20.0756 66.6796 19.9925V13.0333H68.3893L71.0083 19.9925C70.7113 20.7229 70.4186 20.8686 70.0198 20.8686C69.6974 20.8686 69.3566 20.762 69.0101 20.5505C68.9776 20.5317 68.938 20.5285 68.9041 20.5395C68.8687 20.5536 68.839 20.5818 68.8249 20.6194L68.2041 22.1288C68.1744 22.2009 68.1998 22.2839 68.2621 22.3215C68.9097 22.7102 69.4938 22.8764 70.2164 22.8764C71.5683 22.8764 72.3164 22.1773 72.9739 20.2997L76.1501 11.2034C76.167 11.1576 76.1614 11.1059 76.1359 11.0653C76.1119 11.0251 76.0709 11.0008 76.027 11.0008H74.1208C74.0628 11.0008 74.0119 11.041 73.9935 11.1004L72.0406 17.281L69.9024 11.0964C69.8826 11.0388 69.8332 11.0008 69.778 11.0008H66.65V11.0003ZM62.5801 10.9914H60.7488C60.6753 10.9914 60.6145 11.0581 60.6145 11.1401V19.9925C60.6145 20.0756 60.6753 20.1414 60.7488 20.1414H62.5801C62.6536 20.1414 62.7144 20.0756 62.7144 19.9925V11.1407C62.7144 11.0588 62.655 10.992 62.5801 10.992V10.9914ZM61.6751 6.96036C60.9496 6.96036 60.3613 7.61111 60.3613 8.41499C60.3613 9.21934 60.9496 9.87088 61.6751 9.87088C62.4005 9.87088 62.9874 9.21934 62.9874 8.41499C62.9874 7.61127 62.3991 6.96036 61.6751 6.96036ZM77.7141 13.8378C76.9901 13.8378 76.4258 13.1928 76.4258 12.4096C76.4258 11.6264 76.9971 10.9741 77.7212 10.9741C78.4452 10.9741 79.0094 11.6189 79.0094 12.4015C79.0094 13.1847 78.4381 13.8378 77.7141 13.8378ZM77.7212 11.1161C77.0608 11.1161 76.5616 11.6976 76.5616 12.4096C76.5616 13.1213 77.0579 13.695 77.7141 13.695C78.3745 13.695 78.8737 13.114 78.8737 12.4015C78.8737 11.6898 78.3773 11.1161 77.7212 11.1161ZM78.0068 12.5483L78.3717 13.1138H78.0634L77.7353 12.595H77.4539V13.1138H77.1965V11.6148H77.7989C78.1143 11.6148 78.3207 11.793 78.3207 12.093C78.3222 12.3388 78.1935 12.4889 78.0082 12.5483H78.0068ZM77.789 11.872H77.4539V12.3461H77.789C77.9559 12.3461 78.0563 12.2554 78.0563 12.1089C78.0563 11.9546 77.9559 11.872 77.789 11.872Z" fill="#1ED760"/>
</svg>
